<svg xmlns="http://www.w3.org/2000/svg" width="1600" height="1600" viewBox="0 0 1600 1600" version="1.1"><path d="M 724 327.074 C 720.425 327.491, 713.225 328.316, 708 328.906 C 702.775 329.496, 697.825 330.279, 697 330.646 C 696.175 331.013, 693.025 331.674, 690 332.116 C 680.541 333.498, 671.195 335.471, 670.415 336.251 C 670.004 336.663, 668.407 337, 666.868 337 C 665.329 337, 662.142 337.616, 659.785 338.369 C 657.428 339.122, 652.800 340.490, 649.500 341.409 C 638.411 344.497, 626.513 348.175, 624.873 349.022 C 623.978 349.485, 621.611 350.170, 619.612 350.545 C 617.613 350.920, 615.731 351.626, 615.430 352.113 C 615.129 352.601, 614.121 353.003, 613.191 353.006 C 612.261 353.010, 610.375 353.598, 609 354.313 C 607.625 355.028, 603.691 356.488, 600.259 357.557 C 596.826 358.626, 594.013 359.837, 594.009 360.250 C 594.004 360.663, 593.282 361, 592.404 361 C 591.527 361, 589.614 361.623, 588.154 362.384 C 586.694 363.145, 583.925 364.458, 582 365.302 C 572.081 369.650, 546.387 382.637, 545.006 384 C 544.728 384.275, 541.575 386.029, 538 387.898 C 534.425 389.767, 528.861 393.029, 525.636 395.148 C 522.411 397.267, 519.373 399, 518.886 399 C 518.399 399, 518 399.401, 518 399.892 C 518 400.382, 516.875 401.066, 515.500 401.411 C 514.125 401.756, 513 402.480, 513 403.019 C 513 403.559, 512.526 404, 511.947 404 C 511.367 404, 507.547 406.475, 503.456 409.500 C 499.366 412.525, 495.771 415, 495.467 415 C 494.937 415, 493.500 416.092, 490.537 418.750 C 489.770 419.438, 488.864 420, 488.524 420 C 488.183 420, 486.862 421.125, 485.588 422.500 C 484.313 423.875, 482.937 425, 482.529 425 C 481.612 425, 474.212 430.695, 471.500 433.488 C 470.400 434.621, 468.437 436.289, 467.138 437.196 C 457.274 444.082, 420.763 480.580, 410.815 493.500 C 409.545 495.150, 407.492 497.452, 406.253 498.615 C 405.014 499.778, 404 501.203, 404 501.781 C 404 502.360, 403.647 502.983, 403.216 503.167 C 402.785 503.350, 400.209 506.425, 397.492 510 C 391.778 517.516, 390.948 518.569, 389.250 520.463 C 388.563 521.230, 388 522.339, 388 522.929 C 388 523.518, 387.663 524.012, 387.250 524.027 C 386.837 524.042, 385.397 525.842, 384.049 528.027 C 382.701 530.212, 381.238 532, 380.799 532 C 380.360 532, 380 532.675, 380 533.500 C 380 534.325, 379.580 535, 379.067 535 C 378.554 535, 377.824 535.978, 377.445 537.173 C 377.066 538.368, 376.336 539.831, 375.823 540.423 C 374.030 542.493, 364.483 557.631, 362.500 561.549 C 361.400 563.722, 360.275 565.725, 360 566 C 359.476 566.524, 357.449 570.107, 354.344 575.999 C 353.330 577.924, 352.275 579.724, 352 579.999 C 351.725 580.275, 350.712 582.188, 349.750 584.250 C 348.788 586.313, 347.212 589.688, 346.250 591.750 C 345.288 593.813, 344.163 595.650, 343.750 595.833 C 343.338 596.017, 343 596.624, 343 597.182 C 343 598.302, 340.610 604.014, 338.410 608.154 C 337.635 609.614, 337 611.527, 337 612.404 C 337 613.282, 336.550 614, 336 614 C 335.450 614, 335 614.800, 335 615.777 C 335 616.755, 334.422 618.443, 333.715 619.527 C 333.008 620.612, 331.595 623.975, 330.575 627 C 329.555 630.025, 328.333 632.927, 327.860 633.450 C 327.387 633.972, 327 635.029, 327 635.799 C 327 636.568, 326.384 638.616, 325.632 640.349 C 324.879 642.082, 323.435 646.200, 322.422 649.500 C 321.409 652.800, 320.277 655.950, 319.906 656.500 C 319.535 657.050, 318.902 659.075, 318.500 661 C 318.098 662.925, 317.428 664.950, 317.010 665.500 C 316.593 666.050, 316.008 667.850, 315.712 669.500 C 315.061 673.121, 313.046 680.925, 312.226 683 C 311.509 684.817, 309.216 694.815, 308.098 701 C 307.651 703.475, 306.998 706.175, 306.648 707 C 306.298 707.825, 305.541 711.425, 304.966 715 C 301.538 736.320, 300.795 741.324, 299.919 749 C 297.613 769.200, 297.112 779.011, 297.112 804 C 297.112 828.989, 297.613 838.800, 299.919 859 C 301.472 872.610, 305.256 895.353, 307.904 907 C 308.467 909.475, 309.506 914.200, 310.214 917.500 C 310.921 920.800, 311.786 923.950, 312.135 924.500 C 312.484 925.050, 313.085 927.410, 313.472 929.745 C 313.858 932.079, 314.585 934.243, 315.087 934.554 C 315.589 934.864, 316 936.640, 316 938.500 C 316 940.360, 316.399 942.129, 316.887 942.430 C 317.374 942.731, 318.090 944.670, 318.476 946.739 C 318.863 948.808, 319.494 950.950, 319.880 951.500 C 320.265 952.050, 321.409 955.200, 322.422 958.500 C 323.435 961.800, 324.879 965.918, 325.632 967.651 C 326.384 969.384, 327 971.432, 327 972.201 C 327 972.971, 327.387 974.028, 327.860 974.550 C 328.333 975.073, 329.555 977.975, 330.575 981 C 331.595 984.025, 333.008 987.388, 333.715 988.473 C 334.422 989.557, 335 991.245, 335 992.223 C 335 993.200, 335.450 994, 336 994 C 336.550 994, 337 994.718, 337 995.596 C 337 996.473, 337.635 998.386, 338.410 999.846 C 340.610 1003.986, 343 1009.698, 343 1010.818 C 343 1011.376, 343.338 1011.983, 343.750 1012.167 C 344.730 1012.602, 351 1025.265, 351 1026.810 C 351 1027.464, 351.351 1028, 351.781 1028 C 352.210 1028, 353.077 1029.237, 353.708 1030.750 C 354.877 1033.554, 359.094 1041.094, 360 1042 C 360.275 1042.275, 361.399 1044.300, 362.498 1046.500 C 364.313 1050.134, 369.762 1058.775, 371.010 1060 C 371.290 1060.275, 372.405 1062.188, 373.487 1064.250 C 374.569 1066.313, 375.754 1068, 376.119 1068 C 376.484 1068, 377.066 1069.125, 377.411 1070.500 C 377.756 1071.875, 378.480 1073, 379.019 1073 C 379.559 1073, 380 1073.675, 380 1074.500 C 380 1075.325, 380.344 1076, 380.764 1076 C 381.184 1076, 382.640 1077.800, 384 1080 C 385.360 1082.200, 386.816 1084, 387.236 1084 C 387.656 1084, 388 1084.675, 388 1085.500 C 388 1086.325, 388.420 1087, 388.933 1087 C 389.446 1087, 390.116 1087.787, 390.422 1088.750 C 390.728 1089.713, 391.995 1091.640, 393.239 1093.033 C 394.483 1094.427, 397.058 1097.577, 398.963 1100.033 C 400.868 1102.490, 402.780 1104.650, 403.213 1104.833 C 403.646 1105.017, 404 1105.614, 404 1106.160 C 404 1106.707, 405.238 1108.391, 406.750 1109.904 C 408.262 1111.417, 410.625 1114.119, 412 1115.910 C 414.429 1119.073, 421.015 1126.127, 435.593 1141.177 C 443.795 1149.645, 462.112 1166.846, 466.500 1170.201 C 468.150 1171.463, 470.400 1173.412, 471.500 1174.533 C 474.131 1177.215, 481.608 1183, 482.443 1183 C 482.804 1183, 484.708 1184.562, 486.674 1186.472 C 488.641 1188.382, 491.093 1190.212, 492.125 1190.540 C 493.156 1190.867, 494 1191.554, 494 1192.067 C 494 1192.580, 494.689 1193, 495.531 1193 C 496.374 1193, 497.322 1193.675, 497.638 1194.500 C 497.955 1195.325, 498.635 1196, 499.150 1196 C 499.664 1196, 502.522 1197.800, 505.500 1200 C 508.478 1202.200, 511.384 1204, 511.957 1204 C 512.531 1204, 513 1204.347, 513 1204.771 C 513 1205.195, 515.025 1206.648, 517.500 1208 C 519.975 1209.352, 522 1210.805, 522 1211.229 C 522 1211.653, 522.442 1212, 522.982 1212 C 523.523 1212, 526.785 1213.697, 530.232 1215.770 C 533.680 1217.844, 538.300 1220.431, 540.500 1221.520 C 542.700 1222.609, 544.650 1223.838, 544.833 1224.250 C 545.017 1224.662, 545.700 1225, 546.351 1225 C 547.003 1225, 549.103 1226.064, 551.018 1227.365 C 552.933 1228.666, 556.975 1230.780, 560 1232.063 C 563.025 1233.345, 565.725 1234.648, 566 1234.957 C 566.520 1235.542, 569.368 1236.926, 579.500 1241.516 C 582.800 1243.011, 587.679 1245.307, 590.342 1246.617 C 593.006 1247.928, 595.638 1249, 596.191 1249 C 596.745 1249, 598.616 1249.622, 600.349 1250.383 C 602.082 1251.143, 605.075 1252.336, 607 1253.033 C 608.925 1253.730, 611.850 1254.838, 613.500 1255.495 C 615.150 1256.152, 619.200 1257.479, 622.500 1258.445 C 625.800 1259.410, 629.190 1260.547, 630.033 1260.973 C 630.876 1261.398, 633.126 1262.054, 635.033 1262.431 C 636.940 1262.808, 639.400 1263.502, 640.500 1263.973 C 642.548 1264.850, 645.192 1265.556, 660 1269.183 C 664.675 1270.328, 669.175 1271.509, 670 1271.808 C 673.600 1273.114, 688.929 1275.985, 703 1277.988 C 707.125 1278.576, 712.525 1279.480, 715 1279.997 C 717.475 1280.514, 724.788 1281.238, 731.250 1281.605 L 743 1282.272 743 1228.812 L 743 1175.351 733.750 1174.114 C 713.714 1171.433, 698.774 1168.974, 696.500 1167.984 C 695.400 1167.504, 692.138 1166.820, 689.251 1166.462 C 686.364 1166.105, 683.750 1165.405, 683.442 1164.906 C 683.134 1164.408, 681.585 1164, 680 1164 C 678.415 1164, 676.866 1163.592, 676.558 1163.094 C 676.250 1162.595, 673.748 1161.878, 670.999 1161.500 C 668.249 1161.122, 666 1160.405, 666 1159.906 C 666 1159.408, 665.056 1159, 663.901 1159 C 662.747 1159, 660.384 1158.393, 658.651 1157.652 C 656.918 1156.910, 653.025 1155.497, 650 1154.512 C 646.975 1153.527, 644.072 1152.333, 643.550 1151.860 C 643.027 1151.387, 641.971 1151, 641.201 1151 C 640.432 1151, 638.159 1150.276, 636.151 1149.392 C 634.143 1148.507, 631.150 1147.203, 629.500 1146.493 C 625.895 1144.942, 615.850 1140.405, 611 1138.137 C 609.075 1137.237, 607.270 1136.198, 606.990 1135.829 C 606.709 1135.460, 605.247 1134.849, 603.740 1134.471 C 602.233 1134.093, 601 1133.382, 601 1132.892 C 601 1132.401, 600.617 1132, 600.149 1132 C 599.268 1132, 580.341 1121.321, 578.525 1119.800 C 576.212 1117.862, 560.579 1108, 559.820 1108 C 559.369 1108, 559 1107.587, 559 1107.082 C 559 1106.576, 557.313 1105.131, 555.250 1103.869 C 553.188 1102.607, 550.997 1101.108, 550.383 1100.537 C 548.471 1098.761, 544.675 1095.642, 539.997 1092 C 532.669 1086.297, 515.690 1070.706, 509.103 1063.631 C 490.959 1044.145, 490.955 1044.141, 485.510 1037 C 482.784 1033.425, 479.529 1029.380, 478.277 1028.010 C 477.024 1026.641, 476 1025.146, 476 1024.689 C 476 1024.231, 475.438 1023.269, 474.750 1022.551 C 474.063 1021.833, 472.825 1020.235, 472 1019 C 471.175 1017.765, 469.938 1016.167, 469.250 1015.449 C 468.563 1014.731, 468 1013.661, 468 1013.071 C 468 1012.482, 467.559 1012, 467.019 1012 C 466.480 1012, 465.756 1010.875, 465.411 1009.500 C 465.066 1008.125, 464.453 1007, 464.049 1007 C 463.645 1007, 462.457 1005.313, 461.407 1003.250 C 460.358 1001.188, 459.252 999.275, 458.950 999 C 458.100 998.228, 452.690 988.966, 450.480 984.500 C 449.391 982.300, 448.259 980.275, 447.965 980 C 447.671 979.725, 445.124 974.775, 442.305 969 C 437.593 959.348, 435.385 954.498, 431.379 945 C 430.567 943.075, 429.475 940.719, 428.952 939.764 C 428.428 938.809, 428 937.397, 428 936.628 C 428 935.858, 427.328 933.940, 426.506 932.364 C 425.685 930.789, 425.010 928.803, 425.006 927.950 C 425.003 927.098, 424.642 925.973, 424.205 925.450 C 423.768 924.928, 422.590 921.800, 421.587 918.500 C 420.584 915.200, 419.378 911.375, 418.906 910 C 418.434 908.625, 417.558 905.475, 416.960 903 C 416.363 900.525, 415.198 895.800, 414.373 892.500 C 412.130 883.531, 411.083 878.301, 409.867 870 C 409.263 865.875, 408.416 861.600, 407.985 860.500 C 403.481 849.002, 403.481 758.998, 407.985 747.500 C 408.416 746.400, 409.263 742.125, 409.867 738 C 411.090 729.653, 412.146 724.388, 414.382 715.500 C 415.212 712.200, 416.413 707.250, 417.051 704.500 C 417.689 701.750, 418.613 699.072, 419.105 698.550 C 419.597 698.027, 420.015 696.677, 420.033 695.550 C 420.068 693.303, 423.317 683.349, 424.353 682.314 C 424.709 681.958, 425.003 680.954, 425.006 680.083 C 425.010 679.212, 425.685 677.211, 426.506 675.636 C 427.328 674.060, 428 672.142, 428 671.372 C 428 670.603, 428.434 669.191, 428.965 668.236 C 429.496 667.281, 430.878 664.250, 432.037 661.500 C 433.196 658.750, 434.840 654.925, 435.689 653 C 438.283 647.123, 447.422 628.532, 447.979 628 C 448.266 627.725, 449.538 625.475, 450.804 623 C 453.820 617.102, 458.141 609.631, 458.899 609 C 459.230 608.725, 460.358 606.813, 461.407 604.750 C 462.457 602.688, 463.694 601, 464.157 601 C 464.621 601, 465 600.395, 465 599.656 C 465 598.916, 466.124 597.004, 467.499 595.406 C 468.873 593.807, 469.998 592.231, 469.999 591.903 C 470 591.379, 471.273 589.690, 474.981 585.292 C 475.542 584.628, 476.007 583.728, 476.016 583.292 C 476.025 582.856, 477.262 581.090, 478.766 579.366 C 483.973 573.396, 485.508 571.487, 487.148 568.940 C 488.054 567.533, 490.304 564.759, 492.148 562.776 C 493.992 560.793, 499.550 554.779, 504.500 549.413 C 509.450 544.047, 514.772 538.503, 516.327 537.094 C 517.883 535.684, 521.299 532.499, 523.920 530.016 C 530.931 523.371, 540.965 514.629, 542.735 513.623 C 544.154 512.816, 547.659 509.993, 550.383 507.463 C 550.997 506.892, 553.188 505.393, 555.250 504.131 C 557.313 502.869, 559 501.424, 559 500.918 C 559 500.413, 559.369 500, 559.820 500 C 560.495 500, 574.834 491.029, 578.555 488.279 C 580.547 486.807, 583.502 484.986, 585 484.309 C 585.825 483.935, 589.200 482.017, 592.500 480.045 C 595.800 478.073, 600.300 475.569, 602.500 474.480 C 604.700 473.391, 606.650 472.163, 606.833 471.750 C 607.017 471.337, 607.588 471, 608.104 471 C 608.619 471, 612.969 469.164, 617.771 466.920 C 622.572 464.676, 627.850 462.264, 629.500 461.560 C 631.150 460.856, 633.625 459.777, 635 459.162 C 640.001 456.923, 653.484 452, 654.613 452 C 655.250 452, 657.060 451.328, 658.636 450.506 C 660.211 449.685, 662.513 449.010, 663.750 449.006 C 664.987 449.003, 666 448.592, 666 448.094 C 666 447.595, 668.249 446.878, 670.999 446.500 C 673.748 446.122, 676.250 445.405, 676.558 444.906 C 676.866 444.408, 678.415 444, 680 444 C 681.585 444, 683.134 443.592, 683.442 443.094 C 683.750 442.595, 686.364 441.895, 689.251 441.538 C 692.138 441.180, 695.400 440.504, 696.500 440.034 C 698.488 439.184, 707.024 437.595, 718.500 435.936 C 721.800 435.459, 726.525 434.623, 729 434.078 C 731.475 433.533, 735.638 433.068, 738.250 433.044 L 743 433 743 379.500 L 743 326 736.750 326.157 C 733.313 326.244, 727.575 326.656, 724 327.074 M 817 379.511 C 817 421.604, 817.266 433.013, 818.250 433.060 C 818.938 433.092, 821.750 433.569, 824.500 434.119 C 827.250 434.669, 831.975 435.495, 835 435.954 C 847.982 437.924, 854.628 439.152, 856.500 439.928 C 857.600 440.384, 860.975 441.275, 864 441.908 C 867.025 442.541, 871.075 443.483, 873 444 C 874.925 444.517, 878.862 445.493, 881.750 446.168 C 884.638 446.843, 887 447.756, 887 448.197 C 887 448.639, 887.788 448.998, 888.750 448.995 C 890.629 448.990, 898.513 451.453, 903.651 453.652 C 905.384 454.393, 907.303 455, 907.915 455 C 908.527 455, 909.809 455.428, 910.764 455.952 C 911.719 456.475, 914.300 457.646, 916.500 458.554 C 923.576 461.473, 924.391 461.824, 931.320 464.937 C 935.071 466.621, 938.558 468, 939.070 468 C 939.581 468, 940 468.414, 940 468.921 C 940 469.427, 941.350 470.138, 943 470.500 C 944.650 470.862, 946.002 471.461, 946.004 471.829 C 946.006 472.198, 948.143 473.375, 950.754 474.444 C 953.364 475.513, 956.095 476.975, 956.821 477.694 C 957.548 478.412, 958.786 479, 959.571 479 C 960.357 479, 961 479.450, 961 480 C 961 480.550, 961.508 481, 962.128 481 C 963.477 481, 981.639 492.309, 990.331 498.560 C 997.344 503.604, 997.079 503.406, 1002.644 507.759 C 1004.923 509.541, 1007.045 511, 1007.359 511 C 1007.674 511, 1009.253 512.237, 1010.869 513.750 C 1012.485 515.263, 1015.943 518.300, 1018.553 520.500 C 1021.164 522.700, 1025.118 526.075, 1027.341 528 C 1032.795 532.724, 1051.890 552.061, 1055 556.010 C 1057.457 559.129, 1060.844 563.094, 1066.928 569.973 C 1068.618 571.883, 1070 573.761, 1070 574.146 C 1070 574.531, 1071.350 576.196, 1073 577.846 C 1074.650 579.496, 1076 581.125, 1076 581.465 C 1076 581.806, 1076.451 582.628, 1077.001 583.292 C 1080.045 586.964, 1087 597.138, 1087 597.919 C 1087 598.422, 1087.346 598.983, 1087.768 599.167 C 1088.910 599.662, 1095 609.490, 1095 610.838 C 1095 611.477, 1095.348 612, 1095.773 612 C 1096.198 612, 1097.431 613.688, 1098.513 615.750 C 1099.595 617.813, 1100.710 619.725, 1100.990 620 C 1101.271 620.275, 1102.625 622.750, 1104 625.500 C 1105.375 628.250, 1106.838 630.650, 1107.250 630.833 C 1107.662 631.017, 1108 631.768, 1108 632.502 C 1108 633.930, 1111.054 640.159, 1112.171 641.009 C 1112.540 641.290, 1113.152 642.757, 1113.531 644.269 C 1113.911 645.782, 1114.622 647.266, 1115.111 647.568 C 1115.600 647.871, 1116 648.991, 1116 650.059 C 1116 651.127, 1116.450 652, 1117 652 C 1117.550 652, 1118.003 652.563, 1118.006 653.250 C 1118.010 653.938, 1118.589 655.625, 1119.295 657 C 1120 658.375, 1121.390 661.750, 1122.383 664.500 C 1123.376 667.250, 1124.821 670.918, 1125.594 672.651 C 1126.367 674.384, 1127 676.522, 1127 677.401 C 1127 678.281, 1127.450 679, 1128 679 C 1128.550 679, 1128.998 679.788, 1128.995 680.750 C 1128.990 682.517, 1131.604 691.201, 1132.994 694.033 C 1133.407 694.876, 1134.054 697.126, 1134.431 699.033 C 1134.808 700.940, 1135.514 703.400, 1136 704.500 C 1137.246 707.320, 1140.067 719.921, 1142.046 731.500 C 1142.704 735.350, 1143.608 739.400, 1144.056 740.500 C 1144.504 741.600, 1145.146 745.650, 1145.482 749.500 C 1145.818 753.350, 1146.594 758.862, 1147.206 761.750 L 1148.318 767 1201.749 767 L 1255.180 767 1254.452 758.262 C 1254.051 753.456, 1253.336 748.171, 1252.862 746.518 C 1252.388 744.866, 1252 741.440, 1252 738.906 C 1252 736.372, 1251.559 732.994, 1251.019 731.399 C 1250.480 729.805, 1249.610 725.350, 1249.086 721.500 C 1248.224 715.174, 1246.558 706.590, 1244.040 695.500 C 1243.540 693.300, 1242.634 689.250, 1242.025 686.500 C 1241.417 683.750, 1240.487 680.719, 1239.960 679.764 C 1239.432 678.809, 1239 677.398, 1239 676.628 C 1239 675.171, 1237.622 670.499, 1232.839 655.735 C 1231.278 650.914, 1230 646.302, 1230 645.485 C 1230 644.668, 1229.550 644, 1229 644 C 1228.450 644, 1228 643.151, 1228 642.114 C 1228 641.077, 1227.328 638.940, 1226.506 637.364 C 1225.685 635.789, 1225.010 633.802, 1225.006 632.950 C 1225.003 632.097, 1224.624 630.972, 1224.165 630.450 C 1223.706 629.927, 1222.538 627.250, 1221.569 624.500 C 1220.600 621.750, 1218.680 617.025, 1217.302 614 C 1215.925 610.975, 1214.234 607.150, 1213.545 605.500 C 1211.677 601.024, 1205.578 588.574, 1204.972 588 C 1204.682 587.725, 1203.575 585.475, 1202.513 583 C 1201.450 580.525, 1199.550 576.821, 1198.291 574.770 C 1197.031 572.718, 1196 570.581, 1196 570.020 C 1196 569.459, 1195.559 569, 1195.019 569 C 1194.480 569, 1193.756 567.875, 1193.411 566.500 C 1193.066 565.125, 1192.382 564, 1191.892 564 C 1191.401 564, 1191 563.470, 1191 562.823 C 1191 561.151, 1177.848 540.126, 1170.333 529.785 C 1166.850 524.992, 1164 520.808, 1164 520.487 C 1164 520.167, 1162.875 518.862, 1161.500 517.588 C 1160.125 516.313, 1159 514.860, 1159 514.358 C 1159 513.856, 1157.650 511.968, 1156 510.161 C 1154.350 508.355, 1153 506.492, 1153 506.022 C 1153 505.551, 1152.654 505.017, 1152.232 504.833 C 1151.809 504.650, 1150.429 503.150, 1149.164 501.500 C 1147.142 498.862, 1143.218 494.219, 1136.500 486.518 C 1125.103 473.452, 1113.430 461.422, 1103.975 453 C 1099.962 449.425, 1095.386 445.262, 1093.805 443.750 C 1092.224 442.238, 1090.686 441, 1090.387 441 C 1090.088 441, 1088.058 439.197, 1085.877 436.994 C 1083.695 434.790, 1080.693 432.202, 1079.205 431.244 C 1076.115 429.251, 1073.816 427.461, 1070.225 424.250 C 1068.840 423.012, 1067.431 422, 1067.093 422 C 1066.755 422, 1064.683 420.431, 1062.489 418.513 C 1060.295 416.595, 1057.713 414.765, 1056.750 414.446 C 1055.787 414.126, 1055 413.446, 1055 412.933 C 1055 412.420, 1054.362 412, 1053.583 412 C 1052.804 412, 1052.017 411.659, 1051.833 411.242 C 1051.650 410.825, 1048.125 408.237, 1044 405.492 C 1039.875 402.746, 1036.350 400.163, 1036.167 399.750 C 1035.983 399.337, 1035.377 399, 1034.819 399 C 1034.261 399, 1029.911 396.605, 1025.152 393.678 C 1020.393 390.751, 1015.825 388.045, 1015 387.665 C 1014.175 387.285, 1011.250 385.643, 1008.500 384.017 C 1005.750 382.391, 1000.125 379.364, 996 377.291 C 991.875 375.217, 988.350 373.179, 988.167 372.760 C 987.983 372.342, 987.452 372, 986.986 372 C 986.155 372, 977.488 368.203, 967.400 363.418 C 964.596 362.088, 961.558 361, 960.650 361 C 959.743 361, 959 360.550, 959 360 C 959 359.450, 958.212 358.997, 957.250 358.994 C 956.288 358.990, 954.211 358.315, 952.636 357.494 C 951.060 356.672, 949.199 356, 948.500 356 C 947.801 356, 945.940 355.328, 944.364 354.506 C 942.789 353.685, 940.739 353.010, 939.809 353.006 C 938.879 353.003, 937.864 352.589, 937.554 352.087 C 937.243 351.585, 935.194 350.871, 933 350.500 C 930.806 350.129, 928.757 349.415, 928.446 348.913 C 928.136 348.411, 926.810 348, 925.500 348 C 924.190 348, 922.856 347.576, 922.536 347.058 C 922.215 346.540, 919.939 345.813, 917.477 345.444 C 915.015 345.075, 913 344.425, 913 344 C 913 343.575, 910.862 342.909, 908.250 342.520 C 905.638 342.131, 903.050 341.461, 902.500 341.032 C 901.950 340.603, 900.150 339.990, 898.500 339.671 C 890.544 338.133, 884.313 336.681, 882.500 335.942 C 880.544 335.145, 874.027 333.818, 863 331.973 C 859.975 331.466, 855.475 330.610, 853 330.070 C 850.525 329.529, 846.333 329.068, 843.684 329.044 C 841.036 329.020, 838.111 328.612, 837.184 328.137 C 836.258 327.663, 831.337 326.993, 826.250 326.648 L 817 326.022 817 379.511 M 750.500 490.140 C 745.550 490.590, 738.575 491.378, 735 491.892 C 731.425 492.406, 724.675 493.352, 720 493.994 C 715.325 494.635, 710.825 495.432, 710 495.763 C 708.513 496.361, 699.270 498.549, 693.500 499.669 C 691.850 499.989, 690.050 500.604, 689.500 501.036 C 688.950 501.468, 686.808 502.137, 684.739 502.524 C 682.670 502.910, 680.731 503.626, 680.430 504.113 C 680.129 504.601, 678.896 505.003, 677.691 505.006 C 676.486 505.010, 674.375 505.598, 673 506.313 C 671.625 507.028, 667.691 508.488, 664.259 509.557 C 660.826 510.626, 658.013 511.837, 658.009 512.250 C 658.004 512.663, 657.352 513, 656.559 513 C 655.767 513, 651.379 514.746, 646.809 516.881 C 642.239 519.015, 637.487 521.070, 636.250 521.448 C 635.013 521.826, 634 522.554, 634 523.067 C 634 523.580, 633.100 524, 632 524 C 630.900 524, 630 524.420, 630 524.933 C 630 525.446, 628.987 526.181, 627.750 526.567 C 626.513 526.954, 625.275 527.546, 625 527.885 C 624.725 528.223, 621.835 529.850, 618.577 531.500 C 615.319 533.150, 612.169 534.975, 611.577 535.555 C 610.985 536.136, 607.913 538.153, 604.750 540.039 C 601.587 541.925, 599 543.812, 599 544.234 C 599 544.655, 598.502 545, 597.894 545 C 596.726 545, 588.736 550.949, 588.167 552.243 C 587.983 552.659, 587.373 553, 586.811 553 C 585.681 553, 578.635 558.272, 575.500 561.464 C 574.400 562.584, 571.487 565.075, 569.027 567 C 563.271 571.504, 544.541 590.238, 540 596.033 C 538.075 598.490, 535.593 601.400, 534.484 602.500 C 533.374 603.600, 530.449 607.198, 527.984 610.496 C 522.326 618.063, 522.354 618.025, 519.981 620.903 C 518.892 622.225, 517.999 623.575, 517.999 623.903 C 517.998 624.231, 516.873 625.807, 515.499 627.406 C 514.124 629.004, 513 630.916, 513 631.656 C 513 632.395, 512.602 633, 512.117 633 C 511.631 633, 510.969 633.788, 510.646 634.750 C 510.013 636.634, 507.881 640.186, 506.894 641 C 504.492 642.981, 486 680.065, 486 682.901 C 486 683.506, 485.550 684, 485 684 C 484.450 684, 484 684.849, 484 685.886 C 484 686.923, 483.328 689.060, 482.506 690.636 C 481.685 692.211, 481.010 694.288, 481.006 695.250 C 481.003 696.212, 480.550 697, 480 697 C 479.450 697, 479 697.823, 479 698.830 C 479 699.836, 477.893 703.773, 476.539 707.580 C 475.185 711.386, 473.582 716.525, 472.976 719 C 472.369 721.475, 471.198 726.200, 470.373 729.500 C 467.998 738.998, 467.041 743.929, 465.911 752.500 C 465.330 756.900, 464.325 762.300, 463.678 764.500 C 462.038 770.070, 462.038 837.930, 463.678 843.500 C 464.325 845.700, 465.330 851.100, 465.911 855.500 C 467.041 864.071, 467.998 869.002, 470.373 878.500 C 471.198 881.800, 472.369 886.525, 472.976 889 C 473.582 891.475, 475.185 896.614, 476.539 900.420 C 477.893 904.227, 479 908.164, 479 909.170 C 479 910.177, 479.450 911, 480 911 C 480.550 911, 481.003 911.788, 481.006 912.750 C 481.010 913.712, 481.685 915.789, 482.506 917.364 C 483.328 918.940, 484 921.077, 484 922.114 C 484 923.151, 484.430 924, 484.955 924 C 485.480 924, 486.205 925.575, 486.566 927.500 C 486.927 929.425, 487.623 931, 488.111 931 C 488.600 931, 489 931.578, 489 932.283 C 489 934.293, 505.081 965.480, 506.901 967 C 507.888 967.824, 510.017 971.379, 510.646 973.250 C 510.969 974.212, 511.631 975, 512.117 975 C 512.602 975, 513 975.643, 513 976.429 C 513 977.214, 513.605 978.462, 514.344 979.201 C 515.083 979.940, 516.830 982.335, 518.227 984.522 C 519.624 986.710, 521.944 989.850, 523.382 991.500 C 524.821 993.150, 525.998 994.772, 525.999 995.104 C 525.999 995.436, 527.012 996.840, 528.250 998.225 C 529.487 999.609, 531.175 1001.602, 532 1002.655 C 540.663 1013.708, 560.803 1034.565, 569.027 1041 C 571.487 1042.925, 574.452 1045.513, 575.615 1046.750 C 576.778 1047.987, 577.987 1049, 578.303 1049 C 578.618 1049, 580.355 1050.350, 582.161 1052 C 583.968 1053.650, 585.856 1055, 586.358 1055 C 586.860 1055, 588.251 1056.013, 589.450 1057.250 C 591.707 1059.581, 594.408 1061.525, 597 1062.683 C 597.825 1063.052, 598.725 1063.665, 599 1064.046 C 599.275 1064.427, 601.975 1066.237, 605 1068.069 C 608.025 1069.901, 610.725 1071.647, 611 1071.950 C 611.747 1072.772, 614.961 1074.651, 620 1077.211 C 622.475 1078.469, 624.725 1079.732, 625 1080.017 C 625.275 1080.302, 630.900 1083.161, 637.500 1086.369 C 644.100 1089.577, 650.694 1092.832, 652.154 1093.601 C 653.614 1094.370, 655.527 1095, 656.404 1095 C 657.282 1095, 658 1095.450, 658 1096 C 658 1096.550, 658.788 1097.003, 659.750 1097.006 C 660.712 1097.010, 662.789 1097.685, 664.364 1098.506 C 665.940 1099.328, 668.051 1100, 669.055 1100 C 670.060 1100, 671.136 1100.411, 671.446 1100.913 C 671.757 1101.415, 673.806 1102.129, 676 1102.500 C 678.194 1102.871, 680.219 1103.546, 680.500 1104 C 680.781 1104.454, 682.806 1105.129, 685 1105.500 C 687.194 1105.871, 689.243 1106.585, 689.554 1107.087 C 689.864 1107.589, 691.576 1108, 693.359 1108 C 695.142 1108, 697.028 1108.400, 697.550 1108.889 C 698.529 1109.805, 704.233 1111.050, 719 1113.572 C 737.134 1116.668, 741.073 1117.129, 758.680 1118.212 C 791.557 1120.233, 827.954 1116.563, 860 1107.994 C 861.925 1107.479, 865.638 1106.492, 868.250 1105.801 C 870.862 1105.111, 873 1104.198, 873 1103.773 C 873 1103.348, 874.013 1102.997, 875.250 1102.994 C 876.487 1102.990, 878.789 1102.315, 880.364 1101.494 C 881.940 1100.672, 883.801 1100, 884.500 1100 C 885.199 1100, 887.060 1099.328, 888.636 1098.506 C 890.211 1097.685, 892.288 1097.010, 893.250 1097.006 C 894.212 1097.003, 895 1096.550, 895 1096 C 895 1095.450, 895.788 1094.990, 896.750 1094.978 C 897.712 1094.965, 901.200 1093.625, 904.500 1092 C 907.800 1090.375, 911.063 1089.035, 911.750 1089.022 C 912.438 1089.010, 913 1088.586, 913 1088.079 C 913 1087.573, 914.350 1086.862, 916 1086.500 C 917.650 1086.138, 919 1085.427, 919 1084.921 C 919 1084.414, 919.639 1084, 920.419 1084 C 921.730 1084, 927.851 1081.147, 928.999 1080 C 929.633 1079.367, 932.507 1077.644, 937.061 1075.166 C 943.001 1071.935, 962.361 1058.890, 966.576 1055.279 C 967.718 1054.300, 969.893 1052.600, 971.408 1051.500 C 979.923 1045.318, 1012 1015.374, 1012 1013.607 C 1012 1013.338, 1014.250 1010.771, 1017 1007.903 C 1019.750 1005.035, 1022 1002.377, 1022 1001.997 C 1022 1001.617, 1022.938 1000.225, 1024.085 998.903 C 1028.906 993.348, 1039 979.256, 1039 978.081 C 1039 977.578, 1039.346 977.017, 1039.768 976.833 C 1040.910 976.338, 1047 966.510, 1047 965.162 C 1047 964.523, 1047.441 964, 1047.981 964 C 1048.520 964, 1049.244 962.875, 1049.589 961.500 C 1049.934 960.125, 1050.517 959, 1050.884 959 C 1051.251 959, 1052.440 956.979, 1053.526 954.509 C 1054.612 952.040, 1055.738 950.015, 1056.030 950.009 C 1056.321 950.004, 1057.433 947.750, 1058.500 945 C 1059.567 942.250, 1060.791 940, 1061.220 940 C 1061.649 940, 1062 939.525, 1062 938.945 C 1062 938.365, 1062.925 935.777, 1064.055 933.195 C 1065.185 930.613, 1066.489 927.600, 1066.953 926.500 C 1067.417 925.400, 1068.517 922.857, 1069.398 920.849 C 1070.279 918.841, 1071 916.505, 1071 915.658 C 1071 914.811, 1071.415 913.861, 1071.923 913.548 C 1072.431 913.234, 1073.163 911.534, 1073.550 909.771 C 1073.937 908.008, 1074.602 905.876, 1075.027 905.033 C 1075.453 904.190, 1076.584 900.800, 1077.540 897.500 C 1078.497 894.200, 1079.641 890.600, 1080.082 889.500 C 1080.824 887.647, 1081.493 884.917, 1084.125 873 C 1088.978 851.029, 1091.333 829.087, 1091.425 805 C 1091.498 786.057, 1089.679 759.551, 1088.028 755.500 C 1087.580 754.400, 1086.745 750.350, 1086.173 746.500 C 1085.600 742.650, 1084.682 737.475, 1084.132 735 C 1081.389 722.660, 1080.824 720.348, 1080.098 718.500 C 1079.309 716.491, 1077.849 711.840, 1074.373 700.259 C 1073.343 696.826, 1072.162 694.013, 1071.750 694.009 C 1071.338 694.004, 1071 693.281, 1071 692.401 C 1071 691.522, 1070.279 689.159, 1069.398 687.151 C 1068.517 685.143, 1067.417 682.600, 1066.953 681.500 C 1066.489 680.400, 1065.185 677.387, 1064.055 674.805 C 1062.925 672.223, 1062 669.635, 1062 669.055 C 1062 668.475, 1061.662 667.998, 1061.250 667.996 C 1060.838 667.994, 1059.633 665.857, 1058.574 663.246 C 1057.514 660.636, 1056.389 658.275, 1056.074 658 C 1055.758 657.725, 1054.601 655.700, 1053.502 653.500 C 1052.404 651.300, 1050.941 648.905, 1050.252 648.179 C 1049.564 647.452, 1049 646.214, 1049 645.429 C 1049 644.643, 1048.599 644, 1048.108 644 C 1047.618 644, 1046.960 642.979, 1046.647 641.730 C 1046.334 640.482, 1045.215 638.535, 1044.161 637.403 C 1043.107 636.272, 1041.934 634.368, 1041.555 633.173 C 1041.176 631.978, 1040.446 631, 1039.933 631 C 1039.420 631, 1039 630.502, 1039 629.894 C 1039 628.726, 1033.051 620.736, 1031.757 620.167 C 1031.341 619.983, 1031 619.373, 1031 618.811 C 1031 617.948, 1025.742 610.579, 1024 609 C 1023.697 608.725, 1021.885 606.475, 1019.974 604 C 1009.914 590.968, 986.537 568.113, 970.880 556 C 969.102 554.625, 967.165 553.050, 966.574 552.500 C 963.328 549.478, 936.741 532.128, 935.250 532.058 C 934.563 532.026, 934 531.580, 934 531.067 C 934 530.554, 932.987 529.819, 931.750 529.433 C 930.513 529.046, 929.275 528.454, 928.999 528.115 C 928.079 526.985, 921.856 524, 920.419 524 C 919.639 524, 919 523.586, 919 523.079 C 919 522.573, 917.650 521.862, 916 521.500 C 914.350 521.138, 913 520.427, 913 519.921 C 913 519.414, 912.581 519, 912.070 519 C 911.558 519, 908.223 517.650, 904.658 516 C 901.093 514.350, 897.462 513, 896.588 513 C 895.715 513, 895 512.550, 895 512 C 895 511.450, 894.212 510.997, 893.250 510.994 C 892.288 510.990, 890.211 510.315, 888.636 509.494 C 887.060 508.672, 885.199 508, 884.500 508 C 883.801 508, 881.940 507.328, 880.364 506.506 C 878.789 505.685, 876.578 505.010, 875.450 505.006 C 874.323 505.003, 872.973 504.642, 872.450 504.205 C 871.616 503.508, 867.990 502.322, 856.500 498.991 C 854.850 498.512, 851.700 497.834, 849.500 497.482 C 847.300 497.131, 844.825 496.570, 844 496.234 C 840.712 494.898, 816.625 491.425, 801 490.036 C 788.614 488.934, 763.210 488.987, 750.500 490.140 M 1147.445 844.250 C 1147.052 846.038, 1146.134 851.775, 1145.405 857 C 1142.844 875.361, 1142.014 880.514, 1141.375 882 C 1141.021 882.825, 1140.357 885.300, 1139.900 887.500 C 1137.843 897.393, 1136.413 902.921, 1135.734 903.599 C 1135.330 904.003, 1134.985 905.271, 1134.966 906.417 C 1134.947 907.562, 1133.600 912.325, 1131.972 917 C 1130.345 921.675, 1129.011 926.288, 1129.007 927.250 C 1129.003 928.212, 1128.550 929, 1128 929 C 1127.450 929, 1127 929.719, 1127 930.599 C 1127 931.478, 1126.367 933.616, 1125.594 935.349 C 1124.821 937.082, 1123.376 940.750, 1122.383 943.500 C 1121.390 946.250, 1120 949.625, 1119.295 951 C 1118.589 952.375, 1118.010 954.063, 1118.006 954.750 C 1118.003 955.438, 1117.550 956, 1117 956 C 1116.450 956, 1116 956.873, 1116 957.941 C 1116 959.009, 1115.600 960.129, 1115.111 960.432 C 1114.622 960.734, 1113.911 962.218, 1113.531 963.731 C 1113.152 965.243, 1112.540 966.710, 1112.171 966.991 C 1111.054 967.841, 1108 974.070, 1108 975.498 C 1108 976.232, 1107.662 976.983, 1107.250 977.167 C 1106.838 977.350, 1105.375 979.750, 1104 982.500 C 1102.625 985.250, 1101.271 987.725, 1100.990 988 C 1100.710 988.275, 1099.595 990.188, 1098.513 992.250 C 1097.431 994.313, 1096.198 996, 1095.773 996 C 1095.348 996, 1095 996.523, 1095 997.162 C 1095 998.196, 1089.391 1007.725, 1088.033 1009 C 1087.040 1009.932, 1084.945 1013.491, 1084.354 1015.250 C 1084.031 1016.212, 1083.406 1017, 1082.965 1017 C 1082.524 1017, 1081.133 1018.688, 1079.874 1020.750 C 1078.615 1022.813, 1077.229 1024.650, 1076.793 1024.833 C 1076.357 1025.017, 1076 1025.640, 1076 1026.219 C 1076 1026.797, 1074.987 1028.222, 1073.750 1029.385 C 1072.513 1030.548, 1070.638 1032.850, 1069.585 1034.500 C 1068.532 1036.150, 1066.851 1038.400, 1065.850 1039.500 C 1064.849 1040.600, 1063.236 1042.450, 1062.265 1043.610 C 1054.771 1052.568, 1051.212 1056.460, 1041.950 1065.829 C 1036.148 1071.698, 1028.781 1078.750, 1025.578 1081.500 C 1022.376 1084.250, 1018.744 1087.400, 1017.507 1088.500 C 1014.490 1091.183, 1012.648 1092.652, 1005 1098.465 C 1001.425 1101.183, 998.275 1103.687, 998 1104.029 C 997.725 1104.371, 996.038 1105.501, 994.250 1106.541 C 992.462 1107.581, 991 1108.784, 991 1109.216 C 991 1109.647, 990.380 1110, 989.622 1110 C 988.865 1110, 987.711 1110.643, 987.059 1111.429 C 985.510 1113.295, 963.551 1127, 962.109 1127 C 961.499 1127, 961 1127.450, 961 1128 C 961 1128.550, 960.357 1129, 959.571 1129 C 958.786 1129, 957.548 1129.588, 956.821 1130.306 C 956.095 1131.025, 953.364 1132.487, 950.754 1133.556 C 948.143 1134.625, 946.006 1135.802, 946.004 1136.171 C 946.002 1136.539, 944.650 1137.138, 943 1137.500 C 941.350 1137.862, 940 1138.573, 940 1139.079 C 940 1139.586, 939.581 1140, 939.070 1140 C 938.150 1140, 926.119 1145.197, 922.764 1147.044 C 921.809 1147.570, 920.346 1148, 919.514 1148 C 918.681 1148, 918 1148.450, 918 1149 C 918 1149.550, 917.212 1150.003, 916.250 1150.006 C 915.288 1150.010, 913.211 1150.685, 911.636 1151.506 C 910.060 1152.328, 908.328 1153, 907.787 1153 C 907.245 1153, 905.384 1153.607, 903.651 1154.348 C 898.513 1156.547, 890.629 1159.010, 888.750 1159.005 C 887.788 1159.002, 887 1159.361, 887 1159.803 C 887 1160.244, 884.638 1161.157, 881.750 1161.832 C 878.862 1162.507, 874.925 1163.483, 873 1164 C 871.075 1164.517, 867.025 1165.459, 864 1166.092 C 860.975 1166.725, 857.600 1167.606, 856.500 1168.049 C 855.400 1168.492, 851.125 1169.378, 847 1170.018 C 835.373 1171.821, 827.953 1172.954, 822.500 1173.761 L 817.500 1174.500 817.241 1228.292 L 816.983 1282.085 824.741 1281.509 C 829.009 1281.192, 834.750 1280.519, 837.500 1280.013 C 840.250 1279.507, 846.100 1278.586, 850.500 1277.967 C 866.986 1275.644, 878.910 1273.394, 882.500 1271.930 C 883.600 1271.481, 886.525 1270.812, 889 1270.444 C 891.475 1270.075, 893.950 1269.431, 894.500 1269.013 C 895.050 1268.594, 896.850 1267.998, 898.500 1267.689 C 904.285 1266.605, 911.842 1264.491, 912.584 1263.749 C 912.996 1263.337, 914.107 1263, 915.052 1263 C 916.959 1263, 926.635 1260.256, 929.033 1259.035 C 929.876 1258.606, 932.111 1257.915, 934 1257.500 C 935.889 1257.085, 938.124 1256.399, 938.967 1255.976 C 939.810 1255.552, 942.525 1254.439, 945 1253.502 C 947.475 1252.565, 950.978 1251.169, 952.784 1250.399 C 954.590 1249.630, 956.728 1249, 957.534 1249 C 958.340 1249, 959 1248.600, 959 1248.111 C 959 1247.623, 960.575 1246.927, 962.500 1246.566 C 964.425 1246.205, 966 1245.480, 966 1244.955 C 966 1244.430, 966.873 1244, 967.941 1244 C 969.009 1244, 970.139 1243.585, 970.452 1243.077 C 970.766 1242.569, 972.368 1241.858, 974.011 1241.497 C 975.655 1241.136, 977 1240.463, 977 1240 C 977 1239.537, 978.350 1238.862, 980 1238.500 C 981.650 1238.138, 983 1237.427, 983 1236.921 C 983 1236.414, 983.639 1236, 984.419 1236 C 985.911 1236, 992.134 1232.978, 993.009 1231.829 C 993.290 1231.460, 994.753 1230.849, 996.260 1230.471 C 997.767 1230.093, 999 1229.382, 999 1228.892 C 999 1228.401, 999.684 1228, 1000.520 1228 C 1001.356 1228, 1003.822 1226.875, 1006 1225.500 C 1008.178 1224.125, 1010.387 1223, 1010.909 1223 C 1011.430 1223, 1012.452 1222.436, 1013.179 1221.748 C 1013.905 1221.059, 1016.293 1219.596, 1018.485 1218.498 C 1020.676 1217.399, 1023.071 1215.938, 1023.806 1215.250 C 1024.541 1214.563, 1025.786 1214, 1026.571 1214 C 1027.357 1214, 1028 1213.550, 1028 1213 C 1028 1212.450, 1028.675 1212, 1029.500 1212 C 1030.325 1212, 1031 1211.580, 1031 1211.067 C 1031 1210.554, 1032.013 1209.819, 1033.250 1209.433 C 1034.487 1209.046, 1035.725 1208.454, 1036 1208.115 C 1036.275 1207.777, 1039.875 1205.254, 1044 1202.508 C 1048.125 1199.763, 1051.650 1197.175, 1051.833 1196.758 C 1052.017 1196.341, 1052.767 1196, 1053.500 1196 C 1054.233 1196, 1054.983 1195.643, 1055.167 1195.207 C 1055.350 1194.771, 1057.188 1193.385, 1059.250 1192.126 C 1061.313 1190.867, 1063 1189.424, 1063 1188.918 C 1063 1188.413, 1063.482 1188, 1064.071 1188 C 1064.661 1188, 1065.739 1187.438, 1066.467 1186.750 C 1067.195 1186.063, 1069.235 1184.375, 1071 1183 C 1072.765 1181.625, 1074.725 1180.021, 1075.355 1179.435 C 1075.985 1178.850, 1077.239 1177.950, 1078.143 1177.435 C 1081.011 1175.802, 1102.792 1155.973, 1114.397 1144.429 C 1126.070 1132.818, 1138.481 1119.353, 1147.051 1109 C 1148.190 1107.625, 1149.887 1105.600, 1150.823 1104.500 C 1151.758 1103.400, 1154.753 1099.575, 1157.478 1096 C 1160.203 1092.425, 1162.785 1089.350, 1163.216 1089.167 C 1163.647 1088.983, 1164 1088.405, 1164 1087.881 C 1164 1087.358, 1166.850 1083.008, 1170.333 1078.215 C 1177.848 1067.874, 1191 1046.849, 1191 1045.177 C 1191 1044.530, 1191.450 1044, 1192 1044 C 1192.550 1044, 1193 1043.357, 1193 1042.571 C 1193 1041.786, 1193.564 1040.548, 1194.252 1039.821 C 1194.941 1039.095, 1196.404 1036.700, 1197.502 1034.500 C 1198.601 1032.300, 1199.758 1030.275, 1200.074 1030 C 1200.389 1029.725, 1201.514 1027.364, 1202.574 1024.754 C 1203.633 1022.143, 1204.802 1020.006, 1205.171 1020.004 C 1205.539 1020.002, 1206.138 1018.650, 1206.500 1017 C 1206.862 1015.350, 1207.573 1014, 1208.079 1014 C 1208.586 1014, 1209 1013.581, 1209 1013.070 C 1209 1012.211, 1211.675 1005.996, 1217.423 993.500 C 1218.688 990.750, 1220.506 986.475, 1221.464 984 C 1222.422 981.525, 1223.552 978.810, 1223.976 977.967 C 1224.399 977.124, 1225.063 974.992, 1225.450 973.229 C 1225.837 971.466, 1226.569 969.766, 1227.077 969.452 C 1227.585 969.139, 1228 967.784, 1228 966.441 C 1228 965.098, 1228.410 964, 1228.912 964 C 1229.414 964, 1230.140 962.087, 1230.525 959.750 C 1230.911 957.413, 1231.531 955.050, 1231.903 954.500 C 1232.276 953.950, 1233.339 951.025, 1234.267 948 C 1235.194 944.975, 1236.638 940.347, 1237.476 937.715 C 1238.314 935.083, 1239 932.265, 1239 931.451 C 1239 930.638, 1239.432 929.191, 1239.960 928.236 C 1240.487 927.281, 1241.417 924.250, 1242.025 921.500 C 1242.634 918.750, 1243.540 914.700, 1244.040 912.500 C 1247.603 896.810, 1250.665 880.096, 1252.009 869 C 1252.509 864.875, 1253.366 858.125, 1253.915 854 C 1254.463 849.875, 1254.932 845.263, 1254.956 843.750 L 1255 841 1201.579 841 L 1148.159 841 1147.445 844.250" stroke="none" fill="#0d8c84" fill-rule="evenodd"/><path d="M 253.500 0.695 C 244.431 1.529, 223.646 5.346, 211 8.500 C 173.223 17.919, 137.381 35.596, 105.276 60.639 C 93.986 69.446, 69.446 93.986, 60.639 105.276 C 42.103 129.038, 24.930 159.928, 16.038 185.500 C 11.029 199.907, 5.971 219.799, 2.817 237.500 L 0.500 250.500 0.500 800 L 0.500 1349.500 2.817 1362.500 C 8.467 1394.208, 15.920 1417.706, 28.509 1443.506 C 42.476 1472.129, 58.664 1494.680, 81.992 1518.008 C 105.320 1541.336, 127.871 1557.524, 156.494 1571.491 C 182.294 1584.080, 205.792 1591.533, 237.500 1597.183 L 250.500 1599.500 800 1599.500 L 1349.500 1599.500 1362.500 1597.183 C 1380.201 1594.029, 1400.093 1588.971, 1414.500 1583.962 C 1440.072 1575.070, 1470.962 1557.897, 1494.724 1539.361 C 1506.014 1530.554, 1530.554 1506.014, 1539.361 1494.724 C 1557.897 1470.962, 1575.070 1440.072, 1583.962 1414.500 C 1591.010 1394.231, 1599 1358.330, 1599 1346.934 C 1599 1344.835, 1599.450 1342.840, 1600 1342.500 C 1600.665 1342.089, 1601 1159.803, 1601 798.882 C 1601 437.137, 1600.666 256.088, 1600 256.500 C 1599.398 256.872, 1599 255.552, 1599 253.184 C 1599 247.154, 1595.243 226.026, 1591.498 211 C 1582.088 173.239, 1564.407 137.384, 1539.361 105.276 C 1530.554 93.986, 1506.014 69.446, 1494.724 60.639 C 1478.932 48.320, 1460.813 36.954, 1443.506 28.509 C 1418.196 16.159, 1397.169 9.372, 1365 3.168 L 1351.500 0.565 804.500 0.446 C 503.650 0.381, 255.700 0.493, 253.500 0.695 M 0.496 800 C 0.496 1098.925, 0.610 1221.213, 0.750 1071.750 C 0.889 922.288, 0.889 677.713, 0.750 528.250 C 0.610 378.788, 0.496 501.075, 0.496 800 M 724 327.074 C 720.425 327.491, 713.225 328.316, 708 328.906 C 702.775 329.496, 697.825 330.279, 697 330.646 C 696.175 331.013, 693.025 331.674, 690 332.116 C 680.541 333.498, 671.195 335.471, 670.415 336.251 C 670.004 336.663, 668.407 337, 666.868 337 C 665.329 337, 662.142 337.616, 659.785 338.369 C 657.428 339.122, 652.800 340.490, 649.500 341.409 C 638.411 344.497, 626.513 348.175, 624.873 349.022 C 623.978 349.485, 621.611 350.170, 619.612 350.545 C 617.613 350.920, 615.731 351.626, 615.430 352.113 C 615.129 352.601, 614.121 353.003, 613.191 353.006 C 612.261 353.010, 610.375 353.598, 609 354.313 C 607.625 355.028, 603.691 356.488, 600.259 357.557 C 596.826 358.626, 594.013 359.837, 594.009 360.250 C 594.004 360.663, 593.282 361, 592.404 361 C 591.527 361, 589.614 361.623, 588.154 362.384 C 586.694 363.145, 583.925 364.458, 582 365.302 C 572.081 369.650, 546.387 382.637, 545.006 384 C 544.728 384.275, 541.575 386.029, 538 387.898 C 534.425 389.767, 528.861 393.029, 525.636 395.148 C 522.411 397.267, 519.373 399, 518.886 399 C 518.399 399, 518 399.401, 518 399.892 C 518 400.382, 516.875 401.066, 515.500 401.411 C 514.125 401.756, 513 402.480, 513 403.019 C 513 403.559, 512.526 404, 511.947 404 C 511.367 404, 507.547 406.475, 503.456 409.500 C 499.366 412.525, 495.771 415, 495.467 415 C 494.937 415, 493.500 416.092, 490.537 418.750 C 489.770 419.438, 488.864 420, 488.524 420 C 488.183 420, 486.862 421.125, 485.588 422.500 C 484.313 423.875, 482.937 425, 482.529 425 C 481.612 425, 474.212 430.695, 471.500 433.488 C 470.400 434.621, 468.437 436.289, 467.138 437.196 C 457.274 444.082, 420.763 480.580, 410.815 493.500 C 409.545 495.150, 407.492 497.452, 406.253 498.615 C 405.014 499.778, 404 501.203, 404 501.781 C 404 502.360, 403.647 502.983, 403.216 503.167 C 402.785 503.350, 400.209 506.425, 397.492 510 C 391.778 517.516, 390.948 518.569, 389.250 520.463 C 388.563 521.230, 388 522.339, 388 522.929 C 388 523.518, 387.663 524.012, 387.250 524.027 C 386.837 524.042, 385.397 525.842, 384.049 528.027 C 382.701 530.212, 381.238 532, 380.799 532 C 380.360 532, 380 532.675, 380 533.500 C 380 534.325, 379.580 535, 379.067 535 C 378.554 535, 377.824 535.978, 377.445 537.173 C 377.066 538.368, 376.336 539.831, 375.823 540.423 C 374.030 542.493, 364.483 557.631, 362.500 561.549 C 361.400 563.722, 360.275 565.725, 360 566 C 359.476 566.524, 357.449 570.107, 354.344 575.999 C 353.330 577.924, 352.275 579.724, 352 579.999 C 351.725 580.275, 350.712 582.188, 349.750 584.250 C 348.788 586.313, 347.212 589.688, 346.250 591.750 C 345.288 593.813, 344.163 595.650, 343.750 595.833 C 343.338 596.017, 343 596.624, 343 597.182 C 343 598.302, 340.610 604.014, 338.410 608.154 C 337.635 609.614, 337 611.527, 337 612.404 C 337 613.282, 336.550 614, 336 614 C 335.450 614, 335 614.800, 335 615.777 C 335 616.755, 334.422 618.443, 333.715 619.527 C 333.008 620.612, 331.595 623.975, 330.575 627 C 329.555 630.025, 328.333 632.927, 327.860 633.450 C 327.387 633.972, 327 635.029, 327 635.799 C 327 636.568, 326.384 638.616, 325.632 640.349 C 324.879 642.082, 323.435 646.200, 322.422 649.500 C 321.409 652.800, 320.277 655.950, 319.906 656.500 C 319.535 657.050, 318.902 659.075, 318.500 661 C 318.098 662.925, 317.428 664.950, 317.010 665.500 C 316.593 666.050, 316.008 667.850, 315.712 669.500 C 315.061 673.121, 313.046 680.925, 312.226 683 C 311.509 684.817, 309.216 694.815, 308.098 701 C 307.651 703.475, 306.998 706.175, 306.648 707 C 306.298 707.825, 305.541 711.425, 304.966 715 C 301.538 736.320, 300.795 741.324, 299.919 749 C 297.613 769.200, 297.112 779.011, 297.112 804 C 297.112 828.989, 297.613 838.800, 299.919 859 C 301.472 872.610, 305.256 895.353, 307.904 907 C 308.467 909.475, 309.506 914.200, 310.214 917.500 C 310.921 920.800, 311.786 923.950, 312.135 924.500 C 312.484 925.050, 313.085 927.410, 313.472 929.745 C 313.858 932.079, 314.585 934.243, 315.087 934.554 C 315.589 934.864, 316 936.640, 316 938.500 C 316 940.360, 316.399 942.129, 316.887 942.430 C 317.374 942.731, 318.090 944.670, 318.476 946.739 C 318.863 948.808, 319.494 950.950, 319.880 951.500 C 320.265 952.050, 321.409 955.200, 322.422 958.500 C 323.435 961.800, 324.879 965.918, 325.632 967.651 C 326.384 969.384, 327 971.432, 327 972.201 C 327 972.971, 327.387 974.028, 327.860 974.550 C 328.333 975.073, 329.555 977.975, 330.575 981 C 331.595 984.025, 333.008 987.388, 333.715 988.473 C 334.422 989.557, 335 991.245, 335 992.223 C 335 993.200, 335.450 994, 336 994 C 336.550 994, 337 994.718, 337 995.596 C 337 996.473, 337.635 998.386, 338.410 999.846 C 340.610 1003.986, 343 1009.698, 343 1010.818 C 343 1011.376, 343.338 1011.983, 343.750 1012.167 C 344.730 1012.602, 351 1025.265, 351 1026.810 C 351 1027.464, 351.351 1028, 351.781 1028 C 352.210 1028, 353.077 1029.237, 353.708 1030.750 C 354.877 1033.554, 359.094 1041.094, 360 1042 C 360.275 1042.275, 361.399 1044.300, 362.498 1046.500 C 364.313 1050.134, 369.762 1058.775, 371.010 1060 C 371.290 1060.275, 372.405 1062.188, 373.487 1064.250 C 374.569 1066.313, 375.754 1068, 376.119 1068 C 376.484 1068, 377.066 1069.125, 377.411 1070.500 C 377.756 1071.875, 378.480 1073, 379.019 1073 C 379.559 1073, 380 1073.675, 380 1074.500 C 380 1075.325, 380.344 1076, 380.764 1076 C 381.184 1076, 382.640 1077.800, 384 1080 C 385.360 1082.200, 386.816 1084, 387.236 1084 C 387.656 1084, 388 1084.675, 388 1085.500 C 388 1086.325, 388.420 1087, 388.933 1087 C 389.446 1087, 390.116 1087.787, 390.422 1088.750 C 390.728 1089.713, 391.995 1091.640, 393.239 1093.033 C 394.483 1094.427, 397.058 1097.577, 398.963 1100.033 C 400.868 1102.490, 402.780 1104.650, 403.213 1104.833 C 403.646 1105.017, 404 1105.614, 404 1106.160 C 404 1106.707, 405.238 1108.391, 406.750 1109.904 C 408.262 1111.417, 410.625 1114.119, 412 1115.910 C 414.429 1119.073, 421.015 1126.127, 435.593 1141.177 C 443.795 1149.645, 462.112 1166.846, 466.500 1170.201 C 468.150 1171.463, 470.400 1173.412, 471.500 1174.533 C 474.131 1177.215, 481.608 1183, 482.443 1183 C 482.804 1183, 484.708 1184.562, 486.674 1186.472 C 488.641 1188.382, 491.093 1190.212, 492.125 1190.540 C 493.156 1190.867, 494 1191.554, 494 1192.067 C 494 1192.580, 494.689 1193, 495.531 1193 C 496.374 1193, 497.322 1193.675, 497.638 1194.500 C 497.955 1195.325, 498.635 1196, 499.150 1196 C 499.664 1196, 502.522 1197.800, 505.500 1200 C 508.478 1202.200, 511.384 1204, 511.957 1204 C 512.531 1204, 513 1204.347, 513 1204.771 C 513 1205.195, 515.025 1206.648, 517.500 1208 C 519.975 1209.352, 522 1210.805, 522 1211.229 C 522 1211.653, 522.442 1212, 522.982 1212 C 523.523 1212, 526.785 1213.697, 530.232 1215.770 C 533.680 1217.844, 538.300 1220.431, 540.500 1221.520 C 542.700 1222.609, 544.650 1223.838, 544.833 1224.250 C 545.017 1224.662, 545.700 1225, 546.351 1225 C 547.003 1225, 549.103 1226.064, 551.018 1227.365 C 552.933 1228.666, 556.975 1230.780, 560 1232.063 C 563.025 1233.345, 565.725 1234.648, 566 1234.957 C 566.520 1235.542, 569.368 1236.926, 579.500 1241.516 C 582.800 1243.011, 587.679 1245.307, 590.342 1246.617 C 593.006 1247.928, 595.638 1249, 596.191 1249 C 596.745 1249, 598.616 1249.622, 600.349 1250.383 C 602.082 1251.143, 605.075 1252.336, 607 1253.033 C 608.925 1253.730, 611.850 1254.838, 613.500 1255.495 C 615.150 1256.152, 619.200 1257.479, 622.500 1258.445 C 625.800 1259.410, 629.190 1260.547, 630.033 1260.973 C 630.876 1261.398, 633.126 1262.054, 635.033 1262.431 C 636.940 1262.808, 639.400 1263.502, 640.500 1263.973 C 642.548 1264.850, 645.192 1265.556, 660 1269.183 C 664.675 1270.328, 669.175 1271.509, 670 1271.808 C 673.600 1273.114, 688.929 1275.985, 703 1277.988 C 707.125 1278.576, 712.525 1279.480, 715 1279.997 C 717.475 1280.514, 724.788 1281.238, 731.250 1281.605 L 743 1282.272 743 1228.812 L 743 1175.351 733.750 1174.114 C 713.714 1171.433, 698.774 1168.974, 696.500 1167.984 C 695.400 1167.504, 692.138 1166.820, 689.251 1166.462 C 686.364 1166.105, 683.750 1165.405, 683.442 1164.906 C 683.134 1164.408, 681.585 1164, 680 1164 C 678.415 1164, 676.866 1163.592, 676.558 1163.094 C 676.250 1162.595, 673.748 1161.878, 670.999 1161.500 C 668.249 1161.122, 666 1160.405, 666 1159.906 C 666 1159.408, 665.056 1159, 663.901 1159 C 662.747 1159, 660.384 1158.393, 658.651 1157.652 C 656.918 1156.910, 653.025 1155.497, 650 1154.512 C 646.975 1153.527, 644.072 1152.333, 643.550 1151.860 C 643.027 1151.387, 641.971 1151, 641.201 1151 C 640.432 1151, 638.159 1150.276, 636.151 1149.392 C 634.143 1148.507, 631.150 1147.203, 629.500 1146.493 C 625.895 1144.942, 615.850 1140.405, 611 1138.137 C 609.075 1137.237, 607.270 1136.198, 606.990 1135.829 C 606.709 1135.460, 605.247 1134.849, 603.740 1134.471 C 602.233 1134.093, 601 1133.382, 601 1132.892 C 601 1132.401, 600.617 1132, 600.149 1132 C 599.268 1132, 580.341 1121.321, 578.525 1119.800 C 576.212 1117.862, 560.579 1108, 559.820 1108 C 559.369 1108, 559 1107.587, 559 1107.082 C 559 1106.576, 557.313 1105.131, 555.250 1103.869 C 553.188 1102.607, 550.997 1101.108, 550.383 1100.537 C 548.471 1098.761, 544.675 1095.642, 539.997 1092 C 532.669 1086.297, 515.690 1070.706, 509.103 1063.631 C 490.959 1044.145, 490.955 1044.141, 485.510 1037 C 482.784 1033.425, 479.529 1029.380, 478.277 1028.010 C 477.024 1026.641, 476 1025.146, 476 1024.689 C 476 1024.231, 475.438 1023.269, 474.750 1022.551 C 474.063 1021.833, 472.825 1020.235, 472 1019 C 471.175 1017.765, 469.938 1016.167, 469.250 1015.449 C 468.563 1014.731, 468 1013.661, 468 1013.071 C 468 1012.482, 467.559 1012, 467.019 1012 C 466.480 1012, 465.756 1010.875, 465.411 1009.500 C 465.066 1008.125, 464.453 1007, 464.049 1007 C 463.645 1007, 462.457 1005.313, 461.407 1003.250 C 460.358 1001.188, 459.252 999.275, 458.950 999 C 458.100 998.228, 452.690 988.966, 450.480 984.500 C 449.391 982.300, 448.259 980.275, 447.965 980 C 447.671 979.725, 445.124 974.775, 442.305 969 C 437.593 959.348, 435.385 954.498, 431.379 945 C 430.567 943.075, 429.475 940.719, 428.952 939.764 C 428.428 938.809, 428 937.397, 428 936.628 C 428 935.858, 427.328 933.940, 426.506 932.364 C 425.685 930.789, 425.010 928.803, 425.006 927.950 C 425.003 927.098, 424.642 925.973, 424.205 925.450 C 423.768 924.928, 422.590 921.800, 421.587 918.500 C 420.584 915.200, 419.378 911.375, 418.906 910 C 418.434 908.625, 417.558 905.475, 416.960 903 C 416.363 900.525, 415.198 895.800, 414.373 892.500 C 412.130 883.531, 411.083 878.301, 409.867 870 C 409.263 865.875, 408.416 861.600, 407.985 860.500 C 403.481 849.002, 403.481 758.998, 407.985 747.500 C 408.416 746.400, 409.263 742.125, 409.867 738 C 411.090 729.653, 412.146 724.388, 414.382 715.500 C 415.212 712.200, 416.413 707.250, 417.051 704.500 C 417.689 701.750, 418.613 699.072, 419.105 698.550 C 419.597 698.027, 420.015 696.677, 420.033 695.550 C 420.068 693.303, 423.317 683.349, 424.353 682.314 C 424.709 681.958, 425.003 680.954, 425.006 680.083 C 425.010 679.212, 425.685 677.211, 426.506 675.636 C 427.328 674.060, 428 672.142, 428 671.372 C 428 670.603, 428.434 669.191, 428.965 668.236 C 429.496 667.281, 430.878 664.250, 432.037 661.500 C 433.196 658.750, 434.840 654.925, 435.689 653 C 438.283 647.123, 447.422 628.532, 447.979 628 C 448.266 627.725, 449.538 625.475, 450.804 623 C 453.820 617.102, 458.141 609.631, 458.899 609 C 459.230 608.725, 460.358 606.813, 461.407 604.750 C 462.457 602.688, 463.694 601, 464.157 601 C 464.621 601, 465 600.395, 465 599.656 C 465 598.916, 466.124 597.004, 467.499 595.406 C 468.873 593.807, 469.998 592.231, 469.999 591.903 C 470 591.379, 471.273 589.690, 474.981 585.292 C 475.542 584.628, 476.007 583.728, 476.016 583.292 C 476.025 582.856, 477.262 581.090, 478.766 579.366 C 483.973 573.396, 485.508 571.487, 487.148 568.940 C 488.054 567.533, 490.304 564.759, 492.148 562.776 C 493.992 560.793, 499.550 554.779, 504.500 549.413 C 509.450 544.047, 514.772 538.503, 516.327 537.094 C 517.883 535.684, 521.299 532.499, 523.920 530.016 C 530.931 523.371, 540.965 514.629, 542.735 513.623 C 544.154 512.816, 547.659 509.993, 550.383 507.463 C 550.997 506.892, 553.188 505.393, 555.250 504.131 C 557.313 502.869, 559 501.424, 559 500.918 C 559 500.413, 559.369 500, 559.820 500 C 560.495 500, 574.834 491.029, 578.555 488.279 C 580.547 486.807, 583.502 484.986, 585 484.309 C 585.825 483.935, 589.200 482.017, 592.500 480.045 C 595.800 478.073, 600.300 475.569, 602.500 474.480 C 604.700 473.391, 606.650 472.163, 606.833 471.750 C 607.017 471.337, 607.588 471, 608.104 471 C 608.619 471, 612.969 469.164, 617.771 466.920 C 622.572 464.676, 627.850 462.264, 629.500 461.560 C 631.150 460.856, 633.625 459.777, 635 459.162 C 640.001 456.923, 653.484 452, 654.613 452 C 655.250 452, 657.060 451.328, 658.636 450.506 C 660.211 449.685, 662.513 449.010, 663.750 449.006 C 664.987 449.003, 666 448.592, 666 448.094 C 666 447.595, 668.249 446.878, 670.999 446.500 C 673.748 446.122, 676.250 445.405, 676.558 444.906 C 676.866 444.408, 678.415 444, 680 444 C 681.585 444, 683.134 443.592, 683.442 443.094 C 683.750 442.595, 686.364 441.895, 689.251 441.538 C 692.138 441.180, 695.400 440.504, 696.500 440.034 C 698.488 439.184, 707.024 437.595, 718.500 435.936 C 721.800 435.459, 726.525 434.623, 729 434.078 C 731.475 433.533, 735.638 433.068, 738.250 433.044 L 743 433 743 379.500 L 743 326 736.750 326.157 C 733.313 326.244, 727.575 326.656, 724 327.074 M 817 379.511 C 817 421.604, 817.266 433.013, 818.250 433.060 C 818.938 433.092, 821.750 433.569, 824.500 434.119 C 827.250 434.669, 831.975 435.495, 835 435.954 C 847.982 437.924, 854.628 439.152, 856.500 439.928 C 857.600 440.384, 860.975 441.275, 864 441.908 C 867.025 442.541, 871.075 443.483, 873 444 C 874.925 444.517, 878.862 445.493, 881.750 446.168 C 884.638 446.843, 887 447.756, 887 448.197 C 887 448.639, 887.788 448.998, 888.750 448.995 C 890.629 448.990, 898.513 451.453, 903.651 453.652 C 905.384 454.393, 907.303 455, 907.915 455 C 908.527 455, 909.809 455.428, 910.764 455.952 C 911.719 456.475, 914.300 457.646, 916.500 458.554 C 923.576 461.473, 924.391 461.824, 931.320 464.937 C 935.071 466.621, 938.558 468, 939.070 468 C 939.581 468, 940 468.414, 940 468.921 C 940 469.427, 941.350 470.138, 943 470.500 C 944.650 470.862, 946.002 471.461, 946.004 471.829 C 946.006 472.198, 948.143 473.375, 950.754 474.444 C 953.364 475.513, 956.095 476.975, 956.821 477.694 C 957.548 478.412, 958.786 479, 959.571 479 C 960.357 479, 961 479.450, 961 480 C 961 480.550, 961.508 481, 962.128 481 C 963.477 481, 981.639 492.309, 990.331 498.560 C 997.344 503.604, 997.079 503.406, 1002.644 507.759 C 1004.923 509.541, 1007.045 511, 1007.359 511 C 1007.674 511, 1009.253 512.237, 1010.869 513.750 C 1012.485 515.263, 1015.943 518.300, 1018.553 520.500 C 1021.164 522.700, 1025.118 526.075, 1027.341 528 C 1032.795 532.724, 1051.890 552.061, 1055 556.010 C 1057.457 559.129, 1060.844 563.094, 1066.928 569.973 C 1068.618 571.883, 1070 573.761, 1070 574.146 C 1070 574.531, 1071.350 576.196, 1073 577.846 C 1074.650 579.496, 1076 581.125, 1076 581.465 C 1076 581.806, 1076.451 582.628, 1077.001 583.292 C 1080.045 586.964, 1087 597.138, 1087 597.919 C 1087 598.422, 1087.346 598.983, 1087.768 599.167 C 1088.910 599.662, 1095 609.490, 1095 610.838 C 1095 611.477, 1095.348 612, 1095.773 612 C 1096.198 612, 1097.431 613.688, 1098.513 615.750 C 1099.595 617.813, 1100.710 619.725, 1100.990 620 C 1101.271 620.275, 1102.625 622.750, 1104 625.500 C 1105.375 628.250, 1106.838 630.650, 1107.250 630.833 C 1107.662 631.017, 1108 631.768, 1108 632.502 C 1108 633.930, 1111.054 640.159, 1112.171 641.009 C 1112.540 641.290, 1113.152 642.757, 1113.531 644.269 C 1113.911 645.782, 1114.622 647.266, 1115.111 647.568 C 1115.600 647.871, 1116 648.991, 1116 650.059 C 1116 651.127, 1116.450 652, 1117 652 C 1117.550 652, 1118.003 652.563, 1118.006 653.250 C 1118.010 653.938, 1118.589 655.625, 1119.295 657 C 1120 658.375, 1121.390 661.750, 1122.383 664.500 C 1123.376 667.250, 1124.821 670.918, 1125.594 672.651 C 1126.367 674.384, 1127 676.522, 1127 677.401 C 1127 678.281, 1127.450 679, 1128 679 C 1128.550 679, 1128.998 679.788, 1128.995 680.750 C 1128.990 682.517, 1131.604 691.201, 1132.994 694.033 C 1133.407 694.876, 1134.054 697.126, 1134.431 699.033 C 1134.808 700.940, 1135.514 703.400, 1136 704.500 C 1137.246 707.320, 1140.067 719.921, 1142.046 731.500 C 1142.704 735.350, 1143.608 739.400, 1144.056 740.500 C 1144.504 741.600, 1145.146 745.650, 1145.482 749.500 C 1145.818 753.350, 1146.594 758.862, 1147.206 761.750 L 1148.318 767 1201.749 767 L 1255.180 767 1254.452 758.262 C 1254.051 753.456, 1253.336 748.171, 1252.862 746.518 C 1252.388 744.866, 1252 741.440, 1252 738.906 C 1252 736.372, 1251.559 732.994, 1251.019 731.399 C 1250.480 729.805, 1249.610 725.350, 1249.086 721.500 C 1248.224 715.174, 1246.558 706.590, 1244.040 695.500 C 1243.540 693.300, 1242.634 689.250, 1242.025 686.500 C 1241.417 683.750, 1240.487 680.719, 1239.960 679.764 C 1239.432 678.809, 1239 677.398, 1239 676.628 C 1239 675.171, 1237.622 670.499, 1232.839 655.735 C 1231.278 650.914, 1230 646.302, 1230 645.485 C 1230 644.668, 1229.550 644, 1229 644 C 1228.450 644, 1228 643.151, 1228 642.114 C 1228 641.077, 1227.328 638.940, 1226.506 637.364 C 1225.685 635.789, 1225.010 633.802, 1225.006 632.950 C 1225.003 632.097, 1224.624 630.972, 1224.165 630.450 C 1223.706 629.927, 1222.538 627.250, 1221.569 624.500 C 1220.600 621.750, 1218.680 617.025, 1217.302 614 C 1215.925 610.975, 1214.234 607.150, 1213.545 605.500 C 1211.677 601.024, 1205.578 588.574, 1204.972 588 C 1204.682 587.725, 1203.575 585.475, 1202.513 583 C 1201.450 580.525, 1199.550 576.821, 1198.291 574.770 C 1197.031 572.718, 1196 570.581, 1196 570.020 C 1196 569.459, 1195.559 569, 1195.019 569 C 1194.480 569, 1193.756 567.875, 1193.411 566.500 C 1193.066 565.125, 1192.382 564, 1191.892 564 C 1191.401 564, 1191 563.470, 1191 562.823 C 1191 561.151, 1177.848 540.126, 1170.333 529.785 C 1166.850 524.992, 1164 520.808, 1164 520.487 C 1164 520.167, 1162.875 518.862, 1161.500 517.588 C 1160.125 516.313, 1159 514.860, 1159 514.358 C 1159 513.856, 1157.650 511.968, 1156 510.161 C 1154.350 508.355, 1153 506.492, 1153 506.022 C 1153 505.551, 1152.654 505.017, 1152.232 504.833 C 1151.809 504.650, 1150.429 503.150, 1149.164 501.500 C 1147.142 498.862, 1143.218 494.219, 1136.500 486.518 C 1125.103 473.452, 1113.430 461.422, 1103.975 453 C 1099.962 449.425, 1095.386 445.262, 1093.805 443.750 C 1092.224 442.238, 1090.686 441, 1090.387 441 C 1090.088 441, 1088.058 439.197, 1085.877 436.994 C 1083.695 434.790, 1080.693 432.202, 1079.205 431.244 C 1076.115 429.251, 1073.816 427.461, 1070.225 424.250 C 1068.840 423.012, 1067.431 422, 1067.093 422 C 1066.755 422, 1064.683 420.431, 1062.489 418.513 C 1060.295 416.595, 1057.713 414.765, 1056.750 414.446 C 1055.787 414.126, 1055 413.446, 1055 412.933 C 1055 412.420, 1054.362 412, 1053.583 412 C 1052.804 412, 1052.017 411.659, 1051.833 411.242 C 1051.650 410.825, 1048.125 408.237, 1044 405.492 C 1039.875 402.746, 1036.350 400.163, 1036.167 399.750 C 1035.983 399.337, 1035.377 399, 1034.819 399 C 1034.261 399, 1029.911 396.605, 1025.152 393.678 C 1020.393 390.751, 1015.825 388.045, 1015 387.665 C 1014.175 387.285, 1011.250 385.643, 1008.500 384.017 C 1005.750 382.391, 1000.125 379.364, 996 377.291 C 991.875 375.217, 988.350 373.179, 988.167 372.760 C 987.983 372.342, 987.452 372, 986.986 372 C 986.155 372, 977.488 368.203, 967.400 363.418 C 964.596 362.088, 961.558 361, 960.650 361 C 959.743 361, 959 360.550, 959 360 C 959 359.450, 958.212 358.997, 957.250 358.994 C 956.288 358.990, 954.211 358.315, 952.636 357.494 C 951.060 356.672, 949.199 356, 948.500 356 C 947.801 356, 945.940 355.328, 944.364 354.506 C 942.789 353.685, 940.739 353.010, 939.809 353.006 C 938.879 353.003, 937.864 352.589, 937.554 352.087 C 937.243 351.585, 935.194 350.871, 933 350.500 C 930.806 350.129, 928.757 349.415, 928.446 348.913 C 928.136 348.411, 926.810 348, 925.500 348 C 924.190 348, 922.856 347.576, 922.536 347.058 C 922.215 346.540, 919.939 345.813, 917.477 345.444 C 915.015 345.075, 913 344.425, 913 344 C 913 343.575, 910.862 342.909, 908.250 342.520 C 905.638 342.131, 903.050 341.461, 902.500 341.032 C 901.950 340.603, 900.150 339.990, 898.500 339.671 C 890.544 338.133, 884.313 336.681, 882.500 335.942 C 880.544 335.145, 874.027 333.818, 863 331.973 C 859.975 331.466, 855.475 330.610, 853 330.070 C 850.525 329.529, 846.333 329.068, 843.684 329.044 C 841.036 329.020, 838.111 328.612, 837.184 328.137 C 836.258 327.663, 831.337 326.993, 826.250 326.648 L 817 326.022 817 379.511 M 750.500 490.140 C 745.550 490.590, 738.575 491.378, 735 491.892 C 731.425 492.406, 724.675 493.352, 720 493.994 C 715.325 494.635, 710.825 495.432, 710 495.763 C 708.513 496.361, 699.270 498.549, 693.500 499.669 C 691.850 499.989, 690.050 500.604, 689.500 501.036 C 688.950 501.468, 686.808 502.137, 684.739 502.524 C 682.670 502.910, 680.731 503.626, 680.430 504.113 C 680.129 504.601, 678.896 505.003, 677.691 505.006 C 676.486 505.010, 674.375 505.598, 673 506.313 C 671.625 507.028, 667.691 508.488, 664.259 509.557 C 660.826 510.626, 658.013 511.837, 658.009 512.250 C 658.004 512.663, 657.352 513, 656.559 513 C 655.767 513, 651.379 514.746, 646.809 516.881 C 642.239 519.015, 637.487 521.070, 636.250 521.448 C 635.013 521.826, 634 522.554, 634 523.067 C 634 523.580, 633.100 524, 632 524 C 630.900 524, 630 524.420, 630 524.933 C 630 525.446, 628.987 526.181, 627.750 526.567 C 626.513 526.954, 625.275 527.546, 625 527.885 C 624.725 528.223, 621.835 529.850, 618.577 531.500 C 615.319 533.150, 612.169 534.975, 611.577 535.555 C 610.985 536.136, 607.913 538.153, 604.750 540.039 C 601.587 541.925, 599 543.812, 599 544.234 C 599 544.655, 598.502 545, 597.894 545 C 596.726 545, 588.736 550.949, 588.167 552.243 C 587.983 552.659, 587.373 553, 586.811 553 C 585.681 553, 578.635 558.272, 575.500 561.464 C 574.400 562.584, 571.487 565.075, 569.027 567 C 563.271 571.504, 544.541 590.238, 540 596.033 C 538.075 598.490, 535.593 601.400, 534.484 602.500 C 533.374 603.600, 530.449 607.198, 527.984 610.496 C 522.326 618.063, 522.354 618.025, 519.981 620.903 C 518.892 622.225, 517.999 623.575, 517.999 623.903 C 517.998 624.231, 516.873 625.807, 515.499 627.406 C 514.124 629.004, 513 630.916, 513 631.656 C 513 632.395, 512.602 633, 512.117 633 C 511.631 633, 510.969 633.788, 510.646 634.750 C 510.013 636.634, 507.881 640.186, 506.894 641 C 504.492 642.981, 486 680.065, 486 682.901 C 486 683.506, 485.550 684, 485 684 C 484.450 684, 484 684.849, 484 685.886 C 484 686.923, 483.328 689.060, 482.506 690.636 C 481.685 692.211, 481.010 694.288, 481.006 695.250 C 481.003 696.212, 480.550 697, 480 697 C 479.450 697, 479 697.823, 479 698.830 C 479 699.836, 477.893 703.773, 476.539 707.580 C 475.185 711.386, 473.582 716.525, 472.976 719 C 472.369 721.475, 471.198 726.200, 470.373 729.500 C 467.998 738.998, 467.041 743.929, 465.911 752.500 C 465.330 756.900, 464.325 762.300, 463.678 764.500 C 462.038 770.070, 462.038 837.930, 463.678 843.500 C 464.325 845.700, 465.330 851.100, 465.911 855.500 C 467.041 864.071, 467.998 869.002, 470.373 878.500 C 471.198 881.800, 472.369 886.525, 472.976 889 C 473.582 891.475, 475.185 896.614, 476.539 900.420 C 477.893 904.227, 479 908.164, 479 909.170 C 479 910.177, 479.450 911, 480 911 C 480.550 911, 481.003 911.788, 481.006 912.750 C 481.010 913.712, 481.685 915.789, 482.506 917.364 C 483.328 918.940, 484 921.077, 484 922.114 C 484 923.151, 484.430 924, 484.955 924 C 485.480 924, 486.205 925.575, 486.566 927.500 C 486.927 929.425, 487.623 931, 488.111 931 C 488.600 931, 489 931.578, 489 932.283 C 489 934.293, 505.081 965.480, 506.901 967 C 507.888 967.824, 510.017 971.379, 510.646 973.250 C 510.969 974.212, 511.631 975, 512.117 975 C 512.602 975, 513 975.643, 513 976.429 C 513 977.214, 513.605 978.462, 514.344 979.201 C 515.083 979.940, 516.830 982.335, 518.227 984.522 C 519.624 986.710, 521.944 989.850, 523.382 991.500 C 524.821 993.150, 525.998 994.772, 525.999 995.104 C 525.999 995.436, 527.012 996.840, 528.250 998.225 C 529.487 999.609, 531.175 1001.602, 532 1002.655 C 540.663 1013.708, 560.803 1034.565, 569.027 1041 C 571.487 1042.925, 574.452 1045.513, 575.615 1046.750 C 576.778 1047.987, 577.987 1049, 578.303 1049 C 578.618 1049, 580.355 1050.350, 582.161 1052 C 583.968 1053.650, 585.856 1055, 586.358 1055 C 586.860 1055, 588.251 1056.013, 589.450 1057.250 C 591.707 1059.581, 594.408 1061.525, 597 1062.683 C 597.825 1063.052, 598.725 1063.665, 599 1064.046 C 599.275 1064.427, 601.975 1066.237, 605 1068.069 C 608.025 1069.901, 610.725 1071.647, 611 1071.950 C 611.747 1072.772, 614.961 1074.651, 620 1077.211 C 622.475 1078.469, 624.725 1079.732, 625 1080.017 C 625.275 1080.302, 630.900 1083.161, 637.500 1086.369 C 644.100 1089.577, 650.694 1092.832, 652.154 1093.601 C 653.614 1094.370, 655.527 1095, 656.404 1095 C 657.282 1095, 658 1095.450, 658 1096 C 658 1096.550, 658.788 1097.003, 659.750 1097.006 C 660.712 1097.010, 662.789 1097.685, 664.364 1098.506 C 665.940 1099.328, 668.051 1100, 669.055 1100 C 670.060 1100, 671.136 1100.411, 671.446 1100.913 C 671.757 1101.415, 673.806 1102.129, 676 1102.500 C 678.194 1102.871, 680.219 1103.546, 680.500 1104 C 680.781 1104.454, 682.806 1105.129, 685 1105.500 C 687.194 1105.871, 689.243 1106.585, 689.554 1107.087 C 689.864 1107.589, 691.576 1108, 693.359 1108 C 695.142 1108, 697.028 1108.400, 697.550 1108.889 C 698.529 1109.805, 704.233 1111.050, 719 1113.572 C 737.134 1116.668, 741.073 1117.129, 758.680 1118.212 C 791.557 1120.233, 827.954 1116.563, 860 1107.994 C 861.925 1107.479, 865.638 1106.492, 868.250 1105.801 C 870.862 1105.111, 873 1104.198, 873 1103.773 C 873 1103.348, 874.013 1102.997, 875.250 1102.994 C 876.487 1102.990, 878.789 1102.315, 880.364 1101.494 C 881.940 1100.672, 883.801 1100, 884.500 1100 C 885.199 1100, 887.060 1099.328, 888.636 1098.506 C 890.211 1097.685, 892.288 1097.010, 893.250 1097.006 C 894.212 1097.003, 895 1096.550, 895 1096 C 895 1095.450, 895.788 1094.990, 896.750 1094.978 C 897.712 1094.965, 901.200 1093.625, 904.500 1092 C 907.800 1090.375, 911.063 1089.035, 911.750 1089.022 C 912.438 1089.010, 913 1088.586, 913 1088.079 C 913 1087.573, 914.350 1086.862, 916 1086.500 C 917.650 1086.138, 919 1085.427, 919 1084.921 C 919 1084.414, 919.639 1084, 920.419 1084 C 921.730 1084, 927.851 1081.147, 928.999 1080 C 929.633 1079.367, 932.507 1077.644, 937.061 1075.166 C 943.001 1071.935, 962.361 1058.890, 966.576 1055.279 C 967.718 1054.300, 969.893 1052.600, 971.408 1051.500 C 979.923 1045.318, 1012 1015.374, 1012 1013.607 C 1012 1013.338, 1014.250 1010.771, 1017 1007.903 C 1019.750 1005.035, 1022 1002.377, 1022 1001.997 C 1022 1001.617, 1022.938 1000.225, 1024.085 998.903 C 1028.906 993.348, 1039 979.256, 1039 978.081 C 1039 977.578, 1039.346 977.017, 1039.768 976.833 C 1040.910 976.338, 1047 966.510, 1047 965.162 C 1047 964.523, 1047.441 964, 1047.981 964 C 1048.520 964, 1049.244 962.875, 1049.589 961.500 C 1049.934 960.125, 1050.517 959, 1050.884 959 C 1051.251 959, 1052.440 956.979, 1053.526 954.509 C 1054.612 952.040, 1055.738 950.015, 1056.030 950.009 C 1056.321 950.004, 1057.433 947.750, 1058.500 945 C 1059.567 942.250, 1060.791 940, 1061.220 940 C 1061.649 940, 1062 939.525, 1062 938.945 C 1062 938.365, 1062.925 935.777, 1064.055 933.195 C 1065.185 930.613, 1066.489 927.600, 1066.953 926.500 C 1067.417 925.400, 1068.517 922.857, 1069.398 920.849 C 1070.279 918.841, 1071 916.505, 1071 915.658 C 1071 914.811, 1071.415 913.861, 1071.923 913.548 C 1072.431 913.234, 1073.163 911.534, 1073.550 909.771 C 1073.937 908.008, 1074.602 905.876, 1075.027 905.033 C 1075.453 904.190, 1076.584 900.800, 1077.540 897.500 C 1078.497 894.200, 1079.641 890.600, 1080.082 889.500 C 1080.824 887.647, 1081.493 884.917, 1084.125 873 C 1088.978 851.029, 1091.333 829.087, 1091.425 805 C 1091.498 786.057, 1089.679 759.551, 1088.028 755.500 C 1087.580 754.400, 1086.745 750.350, 1086.173 746.500 C 1085.600 742.650, 1084.682 737.475, 1084.132 735 C 1081.389 722.660, 1080.824 720.348, 1080.098 718.500 C 1079.309 716.491, 1077.849 711.840, 1074.373 700.259 C 1073.343 696.826, 1072.162 694.013, 1071.750 694.009 C 1071.338 694.004, 1071 693.281, 1071 692.401 C 1071 691.522, 1070.279 689.159, 1069.398 687.151 C 1068.517 685.143, 1067.417 682.600, 1066.953 681.500 C 1066.489 680.400, 1065.185 677.387, 1064.055 674.805 C 1062.925 672.223, 1062 669.635, 1062 669.055 C 1062 668.475, 1061.662 667.998, 1061.250 667.996 C 1060.838 667.994, 1059.633 665.857, 1058.574 663.246 C 1057.514 660.636, 1056.389 658.275, 1056.074 658 C 1055.758 657.725, 1054.601 655.700, 1053.502 653.500 C 1052.404 651.300, 1050.941 648.905, 1050.252 648.179 C 1049.564 647.452, 1049 646.214, 1049 645.429 C 1049 644.643, 1048.599 644, 1048.108 644 C 1047.618 644, 1046.960 642.979, 1046.647 641.730 C 1046.334 640.482, 1045.215 638.535, 1044.161 637.403 C 1043.107 636.272, 1041.934 634.368, 1041.555 633.173 C 1041.176 631.978, 1040.446 631, 1039.933 631 C 1039.420 631, 1039 630.502, 1039 629.894 C 1039 628.726, 1033.051 620.736, 1031.757 620.167 C 1031.341 619.983, 1031 619.373, 1031 618.811 C 1031 617.948, 1025.742 610.579, 1024 609 C 1023.697 608.725, 1021.885 606.475, 1019.974 604 C 1009.914 590.968, 986.537 568.113, 970.880 556 C 969.102 554.625, 967.165 553.050, 966.574 552.500 C 963.328 549.478, 936.741 532.128, 935.250 532.058 C 934.563 532.026, 934 531.580, 934 531.067 C 934 530.554, 932.987 529.819, 931.750 529.433 C 930.513 529.046, 929.275 528.454, 928.999 528.115 C 928.079 526.985, 921.856 524, 920.419 524 C 919.639 524, 919 523.586, 919 523.079 C 919 522.573, 917.650 521.862, 916 521.500 C 914.350 521.138, 913 520.427, 913 519.921 C 913 519.414, 912.581 519, 912.070 519 C 911.558 519, 908.223 517.650, 904.658 516 C 901.093 514.350, 897.462 513, 896.588 513 C 895.715 513, 895 512.550, 895 512 C 895 511.450, 894.212 510.997, 893.250 510.994 C 892.288 510.990, 890.211 510.315, 888.636 509.494 C 887.060 508.672, 885.199 508, 884.500 508 C 883.801 508, 881.940 507.328, 880.364 506.506 C 878.789 505.685, 876.578 505.010, 875.450 505.006 C 874.323 505.003, 872.973 504.642, 872.450 504.205 C 871.616 503.508, 867.990 502.322, 856.500 498.991 C 854.850 498.512, 851.700 497.834, 849.500 497.482 C 847.300 497.131, 844.825 496.570, 844 496.234 C 840.712 494.898, 816.625 491.425, 801 490.036 C 788.614 488.934, 763.210 488.987, 750.500 490.140 M 1147.445 844.250 C 1147.052 846.038, 1146.134 851.775, 1145.405 857 C 1142.844 875.361, 1142.014 880.514, 1141.375 882 C 1141.021 882.825, 1140.357 885.300, 1139.900 887.500 C 1137.843 897.393, 1136.413 902.921, 1135.734 903.599 C 1135.330 904.003, 1134.985 905.271, 1134.966 906.417 C 1134.947 907.562, 1133.600 912.325, 1131.972 917 C 1130.345 921.675, 1129.011 926.288, 1129.007 927.250 C 1129.003 928.212, 1128.550 929, 1128 929 C 1127.450 929, 1127 929.719, 1127 930.599 C 1127 931.478, 1126.367 933.616, 1125.594 935.349 C 1124.821 937.082, 1123.376 940.750, 1122.383 943.500 C 1121.390 946.250, 1120 949.625, 1119.295 951 C 1118.589 952.375, 1118.010 954.063, 1118.006 954.750 C 1118.003 955.438, 1117.550 956, 1117 956 C 1116.450 956, 1116 956.873, 1116 957.941 C 1116 959.009, 1115.600 960.129, 1115.111 960.432 C 1114.622 960.734, 1113.911 962.218, 1113.531 963.731 C 1113.152 965.243, 1112.540 966.710, 1112.171 966.991 C 1111.054 967.841, 1108 974.070, 1108 975.498 C 1108 976.232, 1107.662 976.983, 1107.250 977.167 C 1106.838 977.350, 1105.375 979.750, 1104 982.500 C 1102.625 985.250, 1101.271 987.725, 1100.990 988 C 1100.710 988.275, 1099.595 990.188, 1098.513 992.250 C 1097.431 994.313, 1096.198 996, 1095.773 996 C 1095.348 996, 1095 996.523, 1095 997.162 C 1095 998.196, 1089.391 1007.725, 1088.033 1009 C 1087.040 1009.932, 1084.945 1013.491, 1084.354 1015.250 C 1084.031 1016.212, 1083.406 1017, 1082.965 1017 C 1082.524 1017, 1081.133 1018.688, 1079.874 1020.750 C 1078.615 1022.813, 1077.229 1024.650, 1076.793 1024.833 C 1076.357 1025.017, 1076 1025.640, 1076 1026.219 C 1076 1026.797, 1074.987 1028.222, 1073.750 1029.385 C 1072.513 1030.548, 1070.638 1032.850, 1069.585 1034.500 C 1068.532 1036.150, 1066.851 1038.400, 1065.850 1039.500 C 1064.849 1040.600, 1063.236 1042.450, 1062.265 1043.610 C 1054.771 1052.568, 1051.212 1056.460, 1041.950 1065.829 C 1036.148 1071.698, 1028.781 1078.750, 1025.578 1081.500 C 1022.376 1084.250, 1018.744 1087.400, 1017.507 1088.500 C 1014.490 1091.183, 1012.648 1092.652, 1005 1098.465 C 1001.425 1101.183, 998.275 1103.687, 998 1104.029 C 997.725 1104.371, 996.038 1105.501, 994.250 1106.541 C 992.462 1107.581, 991 1108.784, 991 1109.216 C 991 1109.647, 990.380 1110, 989.622 1110 C 988.865 1110, 987.711 1110.643, 987.059 1111.429 C 985.510 1113.295, 963.551 1127, 962.109 1127 C 961.499 1127, 961 1127.450, 961 1128 C 961 1128.550, 960.357 1129, 959.571 1129 C 958.786 1129, 957.548 1129.588, 956.821 1130.306 C 956.095 1131.025, 953.364 1132.487, 950.754 1133.556 C 948.143 1134.625, 946.006 1135.802, 946.004 1136.171 C 946.002 1136.539, 944.650 1137.138, 943 1137.500 C 941.350 1137.862, 940 1138.573, 940 1139.079 C 940 1139.586, 939.581 1140, 939.070 1140 C 938.150 1140, 926.119 1145.197, 922.764 1147.044 C 921.809 1147.570, 920.346 1148, 919.514 1148 C 918.681 1148, 918 1148.450, 918 1149 C 918 1149.550, 917.212 1150.003, 916.250 1150.006 C 915.288 1150.010, 913.211 1150.685, 911.636 1151.506 C 910.060 1152.328, 908.328 1153, 907.787 1153 C 907.245 1153, 905.384 1153.607, 903.651 1154.348 C 898.513 1156.547, 890.629 1159.010, 888.750 1159.005 C 887.788 1159.002, 887 1159.361, 887 1159.803 C 887 1160.244, 884.638 1161.157, 881.750 1161.832 C 878.862 1162.507, 874.925 1163.483, 873 1164 C 871.075 1164.517, 867.025 1165.459, 864 1166.092 C 860.975 1166.725, 857.600 1167.606, 856.500 1168.049 C 855.400 1168.492, 851.125 1169.378, 847 1170.018 C 835.373 1171.821, 827.953 1172.954, 822.500 1173.761 L 817.500 1174.500 817.241 1228.292 L 816.983 1282.085 824.741 1281.509 C 829.009 1281.192, 834.750 1280.519, 837.500 1280.013 C 840.250 1279.507, 846.100 1278.586, 850.500 1277.967 C 866.986 1275.644, 878.910 1273.394, 882.500 1271.930 C 883.600 1271.481, 886.525 1270.812, 889 1270.444 C 891.475 1270.075, 893.950 1269.431, 894.500 1269.013 C 895.050 1268.594, 896.850 1267.998, 898.500 1267.689 C 904.285 1266.605, 911.842 1264.491, 912.584 1263.749 C 912.996 1263.337, 914.107 1263, 915.052 1263 C 916.959 1263, 926.635 1260.256, 929.033 1259.035 C 929.876 1258.606, 932.111 1257.915, 934 1257.500 C 935.889 1257.085, 938.124 1256.399, 938.967 1255.976 C 939.810 1255.552, 942.525 1254.439, 945 1253.502 C 947.475 1252.565, 950.978 1251.169, 952.784 1250.399 C 954.590 1249.630, 956.728 1249, 957.534 1249 C 958.340 1249, 959 1248.600, 959 1248.111 C 959 1247.623, 960.575 1246.927, 962.500 1246.566 C 964.425 1246.205, 966 1245.480, 966 1244.955 C 966 1244.430, 966.873 1244, 967.941 1244 C 969.009 1244, 970.139 1243.585, 970.452 1243.077 C 970.766 1242.569, 972.368 1241.858, 974.011 1241.497 C 975.655 1241.136, 977 1240.463, 977 1240 C 977 1239.537, 978.350 1238.862, 980 1238.500 C 981.650 1238.138, 983 1237.427, 983 1236.921 C 983 1236.414, 983.639 1236, 984.419 1236 C 985.911 1236, 992.134 1232.978, 993.009 1231.829 C 993.290 1231.460, 994.753 1230.849, 996.260 1230.471 C 997.767 1230.093, 999 1229.382, 999 1228.892 C 999 1228.401, 999.684 1228, 1000.520 1228 C 1001.356 1228, 1003.822 1226.875, 1006 1225.500 C 1008.178 1224.125, 1010.387 1223, 1010.909 1223 C 1011.430 1223, 1012.452 1222.436, 1013.179 1221.748 C 1013.905 1221.059, 1016.293 1219.596, 1018.485 1218.498 C 1020.676 1217.399, 1023.071 1215.938, 1023.806 1215.250 C 1024.541 1214.563, 1025.786 1214, 1026.571 1214 C 1027.357 1214, 1028 1213.550, 1028 1213 C 1028 1212.450, 1028.675 1212, 1029.500 1212 C 1030.325 1212, 1031 1211.580, 1031 1211.067 C 1031 1210.554, 1032.013 1209.819, 1033.250 1209.433 C 1034.487 1209.046, 1035.725 1208.454, 1036 1208.115 C 1036.275 1207.777, 1039.875 1205.254, 1044 1202.508 C 1048.125 1199.763, 1051.650 1197.175, 1051.833 1196.758 C 1052.017 1196.341, 1052.767 1196, 1053.500 1196 C 1054.233 1196, 1054.983 1195.643, 1055.167 1195.207 C 1055.350 1194.771, 1057.188 1193.385, 1059.250 1192.126 C 1061.313 1190.867, 1063 1189.424, 1063 1188.918 C 1063 1188.413, 1063.482 1188, 1064.071 1188 C 1064.661 1188, 1065.739 1187.438, 1066.467 1186.750 C 1067.195 1186.063, 1069.235 1184.375, 1071 1183 C 1072.765 1181.625, 1074.725 1180.021, 1075.355 1179.435 C 1075.985 1178.850, 1077.239 1177.950, 1078.143 1177.435 C 1081.011 1175.802, 1102.792 1155.973, 1114.397 1144.429 C 1126.070 1132.818, 1138.481 1119.353, 1147.051 1109 C 1148.190 1107.625, 1149.887 1105.600, 1150.823 1104.500 C 1151.758 1103.400, 1154.753 1099.575, 1157.478 1096 C 1160.203 1092.425, 1162.785 1089.350, 1163.216 1089.167 C 1163.647 1088.983, 1164 1088.405, 1164 1087.881 C 1164 1087.358, 1166.850 1083.008, 1170.333 1078.215 C 1177.848 1067.874, 1191 1046.849, 1191 1045.177 C 1191 1044.530, 1191.450 1044, 1192 1044 C 1192.550 1044, 1193 1043.357, 1193 1042.571 C 1193 1041.786, 1193.564 1040.548, 1194.252 1039.821 C 1194.941 1039.095, 1196.404 1036.700, 1197.502 1034.500 C 1198.601 1032.300, 1199.758 1030.275, 1200.074 1030 C 1200.389 1029.725, 1201.514 1027.364, 1202.574 1024.754 C 1203.633 1022.143, 1204.802 1020.006, 1205.171 1020.004 C 1205.539 1020.002, 1206.138 1018.650, 1206.500 1017 C 1206.862 1015.350, 1207.573 1014, 1208.079 1014 C 1208.586 1014, 1209 1013.581, 1209 1013.070 C 1209 1012.211, 1211.675 1005.996, 1217.423 993.500 C 1218.688 990.750, 1220.506 986.475, 1221.464 984 C 1222.422 981.525, 1223.552 978.810, 1223.976 977.967 C 1224.399 977.124, 1225.063 974.992, 1225.450 973.229 C 1225.837 971.466, 1226.569 969.766, 1227.077 969.452 C 1227.585 969.139, 1228 967.784, 1228 966.441 C 1228 965.098, 1228.410 964, 1228.912 964 C 1229.414 964, 1230.140 962.087, 1230.525 959.750 C 1230.911 957.413, 1231.531 955.050, 1231.903 954.500 C 1232.276 953.950, 1233.339 951.025, 1234.267 948 C 1235.194 944.975, 1236.638 940.347, 1237.476 937.715 C 1238.314 935.083, 1239 932.265, 1239 931.451 C 1239 930.638, 1239.432 929.191, 1239.960 928.236 C 1240.487 927.281, 1241.417 924.250, 1242.025 921.500 C 1242.634 918.750, 1243.540 914.700, 1244.040 912.500 C 1247.603 896.810, 1250.665 880.096, 1252.009 869 C 1252.509 864.875, 1253.366 858.125, 1253.915 854 C 1254.463 849.875, 1254.932 845.263, 1254.956 843.750 L 1255 841 1201.579 841 L 1148.159 841 1147.445 844.250" stroke="none" fill="#fbfbfb" fill-rule="evenodd"/></svg>